<svg width="96" height="96" viewBox="0 0 96 96" fill="none" xmlns="http://www.w3.org/2000/svg">
<g id="hotel-bathtub-and-bathroom-outline-15722 1">
<g id="Group">
<path id="Vector" d="M42.6627 29.1896C42.865 29.1896 43.0705 29.1316 43.2507 29.0094C43.7333 28.6838 43.8608 28.0294 43.5352 27.5468L36.2559 16.7522C35.9303 16.2696 35.2759 16.1421 34.7933 16.4677C34.3107 16.7933 34.1832 17.4477 34.5088 17.9303L41.7881 28.7249C41.9915 29.0273 42.3245 29.1896 42.6627 29.1896Z" fill="black"/>
<path id="Vector_2" d="M29.4213 20.0229C28.9386 20.3485 28.8111 21.0028 29.1367 21.4855L32.3949 26.3169C32.5983 26.6193 32.9313 26.7816 33.2696 26.7816C33.4719 26.7816 33.6774 26.7236 33.8575 26.6014C34.3402 26.2758 34.4677 25.6214 34.1421 25.1388L30.8839 20.3074C30.5583 19.8247 29.9039 19.6972 29.4213 20.0229Z" fill="black"/>
<path id="Vector_3" d="M34.7933 27.9894C34.3107 28.315 34.1832 28.9704 34.5088 29.452L35.9978 31.6585C36.2011 31.961 36.5341 32.1232 36.8724 32.1232C37.0747 32.1232 37.2802 32.0653 37.4604 31.943C37.943 31.6174 38.0705 30.962 37.7449 30.4804L36.2559 28.2739C35.9303 27.7913 35.2759 27.6627 34.7933 27.9894Z" fill="black"/>
<path id="Vector_4" d="M39.7934 14.2452L43.0779 19.1157C43.2813 19.4181 43.6143 19.5804 43.9525 19.5804C44.1548 19.5804 44.3603 19.5224 44.5405 19.4002C45.0231 19.0746 45.1506 18.4202 44.825 17.9376L41.5405 13.0671C41.2149 12.5845 40.5594 12.457 40.0779 12.7826C39.5953 13.1072 39.4677 13.7626 39.7934 14.2452Z" fill="black"/>
<path id="Vector_5" d="M46.6785 24.456C46.8819 24.7584 47.2149 24.9207 47.5532 24.9207C47.7555 24.9207 47.961 24.8627 48.1412 24.7405C48.6238 24.4149 48.7513 23.7605 48.4257 23.2779L46.9367 21.0703C46.6111 20.5877 45.9557 20.4602 45.4741 20.7858C44.9915 21.1114 44.864 21.7658 45.1896 22.2484L46.6785 24.456Z" fill="black"/>
<path id="Vector_6" d="M95.365 51.9515C95.365 49.5321 93.3966 47.5637 90.9771 47.5637H14.8163V37.7544H17.6056V40.6869C17.6056 41.2686 18.0777 41.7407 18.6593 41.7407C19.241 41.7407 19.7131 41.2686 19.7131 40.6869V32.7153C19.7131 32.1337 19.241 31.6616 18.6593 31.6616C18.0777 31.6616 17.6056 32.1337 17.6056 32.7153V35.6479H14.8163V12.2072C14.8163 8.21037 18.0682 4.9585 22.0651 4.9585C23.1968 4.9585 24.2843 5.22615 25.2769 5.72036C24.1114 6.93428 23.3116 8.45484 22.9829 10.1461C22.5319 12.4665 23.0113 14.8227 24.3327 16.7826L25.3738 18.3264C25.5772 18.6288 25.9102 18.7911 26.2484 18.7911C26.4508 18.7911 26.6562 18.7331 26.8364 18.6109L39.7628 9.89426C39.9946 9.73831 40.1548 9.49594 40.2075 9.22197C40.2612 8.94799 40.2033 8.66348 40.0473 8.43166L39.0062 6.88791C37.6848 4.92794 35.6795 3.60021 33.3591 3.14921C31.1674 2.72244 28.9471 3.13656 27.0567 4.29674C25.5635 3.34942 23.8522 2.85205 22.0661 2.85205C16.907 2.85205 12.7099 7.04914 12.7099 12.2083V47.5648H4.91528C2.49587 47.5637 0.527466 49.5321 0.527466 51.9515C0.527466 54.3709 2.49587 56.3393 4.91528 56.3393H5.75407V67.2667C5.75407 74.7199 9.84578 81.2237 15.8911 84.6863V91.9888C15.8911 92.5715 16.3632 93.0425 16.9449 93.0425H26.26C26.8417 93.0425 27.3138 92.5715 27.3138 91.9888V87.3428H68.5786V91.9888C68.5786 92.5715 69.0497 93.0425 69.6324 93.0425H78.9475C79.5303 93.0425 80.0013 92.5715 80.0013 91.9888V85.2226C86.5978 81.9286 91.15 75.1277 91.15 67.2667V56.3214C93.4882 56.2287 95.365 54.3119 95.365 51.9515ZM31.6552 5.09127C32.0873 5.09127 32.5225 5.13342 32.9566 5.21772C34.7248 5.56124 36.2517 6.57284 37.2591 8.06601L37.7111 8.73619L26.5319 16.2747L26.0798 15.6045C25.0725 14.1114 24.7079 12.3158 25.0514 10.5486C25.3949 8.78045 26.4065 7.25356 27.8997 6.24618C29.0272 5.48537 30.3254 5.09127 31.6552 5.09127ZM25.2063 90.935H17.9986V85.7506C18.555 85.9866 19.1262 86.1931 19.7068 86.3797C19.7184 86.3828 19.7289 86.3881 19.7394 86.3912C20.1462 86.5209 20.5645 86.621 20.9818 86.7253C21.1883 86.7769 21.3917 86.8401 21.6004 86.8844C21.9386 86.9571 22.2842 87.0056 22.6288 87.0614C22.9334 87.111 23.2358 87.1657 23.5424 87.2016C23.8354 87.2353 24.1315 87.2501 24.4286 87.2711C24.6878 87.289 24.946 87.3238 25.2063 87.3322V90.935ZM77.8938 86.1373V90.935H70.6861V87.3428H71.075C71.7114 87.3428 72.3426 87.307 72.9707 87.2469C73.2194 87.2237 73.4628 87.1816 73.7093 87.1499C74.0708 87.1015 74.4312 87.053 74.7894 86.9845C75.1161 86.9234 75.4364 86.8465 75.7568 86.7695C76.0107 86.7084 76.2636 86.6452 76.5155 86.5735C76.8959 86.4661 77.27 86.347 77.6409 86.2174C77.7252 86.1879 77.8105 86.1678 77.8938 86.1373ZM89.0425 67.2667C89.0425 74.5429 84.6873 80.8095 78.4533 83.6315C77.9012 83.8802 77.3427 84.1004 76.7768 84.2911C76.7473 84.3006 76.7199 84.3133 76.6904 84.3227C76.1319 84.5082 75.5671 84.6599 74.997 84.7895C74.9443 84.8011 74.8938 84.818 74.8411 84.8296C74.3058 84.9455 73.7641 85.0277 73.2194 85.093C73.1329 85.1036 73.0486 85.1236 72.9622 85.132C72.3374 85.1984 71.7083 85.2332 71.0739 85.2332H69.6324H26.26H25.8291C25.2621 85.2332 24.7036 85.1995 24.1504 85.1478C24.0651 85.1404 23.9797 85.1341 23.8944 85.1246C23.3559 85.0667 22.8238 84.9855 22.3 84.8802C22.2263 84.8654 22.1525 84.8485 22.0788 84.8327C21.5456 84.7189 21.0187 84.5872 20.5045 84.4271C20.4992 84.4249 20.4939 84.4239 20.4876 84.4228C19.9976 84.27 19.5213 84.0888 19.0513 83.896C18.9228 83.8433 18.7953 83.7906 18.6678 83.7347C12.3158 80.9634 7.86157 74.6293 7.86157 67.2667V56.3393H89.0425V67.2667ZM90.9771 54.2318H90.0962H6.80782H4.91528C3.65816 54.2318 2.63497 53.2087 2.63497 51.9515C2.63497 50.6944 3.65816 49.6712 4.91528 49.6712H90.9771C92.2343 49.6712 93.2575 50.6944 93.2575 51.9515C93.2575 53.2087 92.2343 54.2318 90.9771 54.2318Z" fill="black"/>
<path id="Vector_7" d="M29.5183 79.7886C30.0999 79.7886 30.572 79.3175 30.572 78.7348C30.572 78.1521 30.0999 77.6811 29.5183 77.6811C21.8101 77.6811 15.5382 71.4102 15.5382 63.701C15.5382 63.1182 15.0661 62.6472 14.4844 62.6472C13.9027 62.6472 13.4307 63.1182 13.4307 63.701C13.4307 72.5714 20.6478 79.7886 29.5183 79.7886Z" fill="black"/>
</g>
</g>
</svg>
