<svg width="117" height="115" viewBox="0 0 117 115" fill="none" xmlns="http://www.w3.org/2000/svg">
<g id="sofa-svgrepo-com 1" clip-path="url(#clip0_19_60)">
<path id="Vector" d="M112.01 37.4296C111.618 37.3971 111.229 37.3966 110.844 37.421V37.42L101.398 37.4273C99.3122 37.4273 97.6073 37.8731 96.2539 38.7705C96.1863 37.6695 96.046 36.2547 95.7549 34.9564C95.3459 33.1334 93.6735 31.8101 91.7785 31.8101H58.0173H24.256C22.3609 31.8101 20.689 33.1334 20.2798 34.9564C19.9887 36.2547 19.8481 37.6695 19.7805 38.7705C18.4272 37.8729 16.7222 37.4273 14.6368 37.4273L5.19019 37.42V37.4208C4.80533 37.3963 4.41615 37.3971 4.02417 37.4296C1.77729 37.6153 0.0172119 39.512 0.0172119 41.7473V68.869C0.0172119 72.7524 3.20412 75.9116 7.12109 75.9116H9.16842V80.9188C9.16842 81.8401 9.72334 82.6634 10.582 83.016C10.867 83.1329 11.1652 83.1899 11.4608 83.1899C12.0554 83.1899 12.6385 82.9591 13.0775 82.5238L19.7472 75.9114H96.2872L102.957 82.5238C103.396 82.9591 103.979 83.1899 104.574 83.1899C104.869 83.1899 105.167 83.1329 105.452 83.016C106.311 82.6634 106.866 81.8401 106.866 80.9185V75.9114H108.913C112.83 75.9114 116.017 72.7519 116.017 68.8687V41.7473C116.017 39.512 114.257 37.6153 112.01 37.4296ZM101.399 39.1914L106.313 39.1876C105.391 39.9328 104.63 40.8854 104.113 41.9998L101.131 48.4318C99.0819 52.8508 99.1831 57.838 101.175 62.0728C97.9939 60.0973 94.5919 58.5165 91.041 57.3587C90.616 54.567 91.0171 51.7462 92.2114 49.1692L95.1934 42.7377C96.3291 40.2849 98.2428 39.1914 101.399 39.1914ZM24.256 33.5741H58.0173H91.7785C92.8466 33.5741 93.7882 34.3165 94.0177 35.3394C94.4524 37.2774 94.5233 39.5878 94.5345 40.3917C94.1723 40.8698 93.8525 41.4048 93.5764 42.001L90.5944 48.4326C89.3724 51.0691 88.8923 53.9324 89.178 56.7912C86.5346 56.0495 83.8194 55.5354 81.0598 55.2671C65.7699 53.8576 50.2647 53.8578 34.97 55.2673C32.2124 55.5354 29.4989 56.0493 26.8567 56.7907C27.1422 53.9322 26.662 51.0688 25.4398 48.4321L22.458 42.0013C22.182 41.405 21.8619 40.8698 21.4997 40.3917C21.5106 39.5888 21.5813 37.2817 22.0167 35.3394C22.2463 34.3163 23.1878 33.5741 24.256 33.5741ZM14.6363 39.1914C17.7917 39.1914 19.7053 40.2849 20.8413 42.7377L23.8228 49.1689C25.0176 51.7462 25.4187 54.567 24.9937 57.3582C21.443 58.516 18.0408 60.0971 14.8597 62.0728C16.8514 57.838 16.9525 52.8508 14.9034 48.4318L11.9212 41.9998C11.4046 40.8854 10.643 39.9328 9.72106 39.1876L14.6363 39.1914ZM11.8195 81.2766C11.6021 81.4924 11.3576 81.4251 11.263 81.3865C11.1685 81.3475 10.9481 81.224 10.9481 80.919V75.9119H17.2312L11.8195 81.2766ZM105.087 80.9188C105.087 81.224 104.866 81.3475 104.772 81.3863C104.677 81.4251 104.433 81.4924 104.215 81.2764L98.8038 75.9114H105.087V80.9188H105.087ZM114.238 68.8687C114.238 71.784 111.854 74.1473 108.913 74.1473H7.12109C4.1805 74.1476 1.79661 71.7842 1.79661 68.8687V41.7473C1.79661 40.4222 2.84011 39.2978 4.17237 39.1876C6.75378 38.9749 9.22104 40.4003 10.3047 42.7367L13.287 49.1687C15.8834 54.7683 14.6111 61.3941 10.1207 65.6564L11.3515 66.9305C12.3103 66.0188 13.3409 65.1811 14.4403 64.4417C20.5996 60.2997 27.7095 57.7458 35.1393 57.0236C50.3202 55.6244 65.7145 55.6241 80.8908 57.0233C88.3244 57.7458 95.4349 60.2997 101.594 64.4417C102.689 65.1781 103.715 66.0117 104.671 66.9189L104.683 66.9305L105.914 65.6564C101.423 61.3941 100.151 54.7683 102.747 49.1687L105.729 42.7367C106.813 40.4003 109.281 38.9767 111.862 39.1876C113.194 39.2978 114.238 40.422 114.238 41.7473V68.8687H114.238Z" fill="black"/>
</g>
<defs>
<clipPath id="clip0_19_60">
<rect width="116" height="115" fill="white" transform="translate(0.0172119)"/>
</clipPath>
</defs>
</svg>
