<svg width="71" height="71" viewBox="0 0 71 71" fill="none" xmlns="http://www.w3.org/2000/svg">
<g id="dots-three-thin-svgrepo-com 1">
<g id="Group 26">
<path id="Vector" d="M21.4375 35.2188C21.4375 35.6576 21.3074 36.0866 21.0636 36.4514C20.8198 36.8163 20.4733 37.1007 20.0678 37.2686C19.6624 37.4365 19.2163 37.4805 18.7859 37.3949C18.3555 37.3093 17.9602 37.0979 17.6499 36.7876C17.3396 36.4773 17.1282 36.082 17.0426 35.6516C16.957 35.2212 17.001 34.7751 17.1689 34.3697C17.3368 33.9642 17.6212 33.6177 17.9861 33.3739C18.351 33.1301 18.7799 33 19.2188 33C19.807 33.0007 20.371 33.2346 20.7869 33.6506C21.2029 34.0666 21.4368 34.6305 21.4375 35.2188ZM54.7188 33C54.2799 33 53.8509 33.1301 53.4861 33.3739C53.1212 33.6177 52.8368 33.9642 52.6689 34.3697C52.501 34.7751 52.457 35.2212 52.5426 35.6516C52.6282 36.082 52.8396 36.4773 53.1499 36.7876C53.4602 37.0979 53.8555 37.3093 54.2859 37.3949C54.7163 37.4805 55.1624 37.4365 55.5678 37.2686C55.9733 37.1007 56.3198 36.8163 56.5636 36.4514C56.8074 36.0866 56.9375 35.6576 56.9375 35.2188C56.9368 34.6305 56.7029 34.0666 56.2869 33.6506C55.8709 33.2346 55.307 33.0007 54.7188 33ZM36.9688 33C36.5299 33 36.101 33.1301 35.7361 33.3739C35.3712 33.6177 35.0868 33.9642 34.9189 34.3697C34.751 34.7751 34.707 35.2212 34.7926 35.6516C34.8782 36.082 35.0896 36.4773 35.3999 36.7876C35.7102 37.0979 36.1055 37.3093 36.5359 37.3949C36.9663 37.4805 37.4124 37.4365 37.8178 37.2686C38.2233 37.1007 38.5698 36.8163 38.8136 36.4514C39.0574 36.0866 39.1875 35.6576 39.1875 35.2188C39.1868 34.6305 38.9529 34.0666 38.5369 33.6506C38.121 33.2346 37.557 33.0007 36.9688 33Z" fill="black"/>
<circle id="Ellipse 1" cx="36.5" cy="35.5" r="33.75" stroke="black" stroke-width="1.5"/>
</g>
</g>
</svg>
