<svg width="1138" height="93" viewBox="0 0 1138 93" fill="none" xmlns="http://www.w3.org/2000/svg">
<g filter="url(#filter0_d_19_288)">
<path d="M14.6655 83.864C12.0202 83.864 9.50283 83.096 7.11349 81.56C4.72416 80.1093 2.93216 77.848 1.73749 74.776C1.31083 73.6667 1.01216 72.472 0.841493 71.192C0.756159 69.912 0.713493 68.6747 0.713493 67.48V65.816C0.713493 65.2187 0.756159 64.664 0.841493 64.152C1.01216 63.64 1.35349 63.384 1.86549 63.384C2.03616 63.384 2.12149 63.4693 2.12149 63.64C2.12149 64.152 2.07883 64.664 1.99349 65.176C1.99349 65.688 1.99349 66.2 1.99349 66.712C1.99349 70.7227 2.97483 73.7947 4.93749 75.928C6.98549 77.976 9.50283 79 12.4895 79C15.4762 79 18.3775 78.1467 21.1935 76.44C24.0095 74.648 26.6122 72.4293 29.0015 69.784C30.3668 68.3333 31.9028 66.1573 33.6095 63.256C35.4015 60.2693 37.2362 56.9413 39.1135 53.272C41.0762 49.5173 43.0388 45.6773 45.0015 41.752C46.9642 37.7413 48.8415 33.9013 50.6335 30.232C52.4255 26.4773 54.0468 23.192 55.4975 20.376C56.8628 17.7307 58.6975 15.64 61.0015 14.104C63.3055 12.568 65.2682 11.5013 66.8895 10.904C66.2922 10.904 65.0122 10.9467 63.0495 11.032C61.1722 11.1173 59.1668 11.2027 57.0335 11.288C54.9002 11.3733 53.1935 11.4587 51.9135 11.544C48.6708 11.7147 45.3855 12.0987 42.0575 12.696C38.7295 13.2933 35.7855 14.104 33.2255 15.128C30.6655 16.152 28.8308 17.4747 27.7215 19.096C26.9535 20.2053 26.5695 21.4853 26.5695 22.936C26.5695 25.8373 27.8495 27.928 30.4095 29.208C30.5802 29.3787 30.6655 29.464 30.6655 29.464C30.6655 29.72 30.4522 29.976 30.0255 30.232C29.5988 30.4027 29.1722 30.4453 28.7455 30.36C28.0628 29.9333 27.2095 29.2507 26.1855 28.312C25.2468 27.288 24.3508 26.2213 23.4975 25.112C22.7295 24.0027 22.2175 23.064 21.9615 22.296C21.5348 21.016 21.3215 19.992 21.3215 19.224C21.3215 17.176 22.0895 15.512 23.6255 14.232C25.1615 12.8667 27.1668 11.8427 29.6415 11.16C32.1162 10.392 34.7615 9.87999 37.5775 9.62399C40.3935 9.28266 43.1242 9.06933 45.7695 8.98399C48.4148 8.89866 50.6762 8.856 52.5535 8.856C56.9055 8.856 60.7882 8.856 64.2015 8.856C67.7002 8.77066 70.9002 8.728 73.8015 8.728C76.7882 8.728 79.6468 8.77066 82.3775 8.856C85.1935 8.94133 88.1375 9.06933 91.2095 9.24C93.4282 9.32533 94.9215 9.752 95.6895 10.52C96.5428 11.288 96.9695 12.2267 96.9695 13.336C96.9695 14.7867 96.5002 16.3653 95.5615 18.072C94.6228 19.7787 93.7695 21.3573 93.0015 22.808C92.6602 23.4907 92.1055 24.0027 91.3375 24.344C90.5695 24.6 90.2708 24.344 90.4415 23.576C90.6122 22.808 90.7828 21.9973 90.9535 21.144C91.1242 20.2053 91.2095 19.3093 91.2095 18.456C91.2095 16.92 90.9108 15.5547 90.3135 14.36C89.7162 13.08 88.6922 12.184 87.2415 11.672C86.3882 11.3307 85.3642 11.1173 84.1695 11.032C82.9748 10.8613 81.6948 10.776 80.3295 10.776C77.7695 10.776 75.2095 11.032 72.6495 11.544C70.0895 12.056 68.0842 12.8667 66.6335 13.976C64.8415 15.3413 63.0068 17.56 61.1295 20.632C59.3375 23.704 57.6308 26.9893 56.0095 30.488C54.3882 33.9867 52.9375 37.0587 51.6575 39.704C51.5722 39.8747 51.5295 40.1307 51.5295 40.472C51.5295 40.8987 51.9135 41.112 52.6815 41.112C53.8762 41.112 55.5402 41.112 57.6735 41.112C59.8922 41.112 62.1962 41.1547 64.5855 41.24C66.9748 41.24 69.0228 41.24 70.7295 41.24C72.6068 41.24 74.1002 41.368 75.2095 41.624C76.3188 41.7947 76.8735 42.3493 76.8735 43.288C76.8735 43.6293 76.6602 44.312 76.2335 45.336C75.6362 46.7013 74.9535 47.896 74.1855 48.92C73.5028 49.8587 72.9482 50.84 72.5215 51.864C72.4362 52.2053 72.0522 52.504 71.3695 52.76C70.6868 53.016 70.4308 52.9733 70.6015 52.632C70.9428 51.864 71.2842 50.9253 71.6255 49.816C72.0522 48.6213 72.2655 47.5973 72.2655 46.744C72.2655 45.3787 71.6682 44.696 70.4735 44.696H50.5055C49.7375 44.696 49.1402 45.0373 48.7135 45.72C46.2388 50.6693 43.5508 55.96 40.6495 61.592C37.8335 67.224 34.5482 72.0453 30.7935 76.056C28.6602 78.36 26.1855 80.2373 23.3695 81.688C20.5535 83.1387 17.6522 83.864 14.6655 83.864ZM90.4455 80.024C86.9468 80.024 84.5148 79.3413 83.1495 77.976C81.7842 76.6107 81.1015 74.9467 81.1015 72.984C81.1015 70.5093 81.7415 67.864 83.0215 65.048C84.3868 62.232 85.6668 59.8427 86.8615 57.88C88.2268 55.832 90.0615 53.6987 92.3655 51.48C94.6695 49.2613 97.1868 47.384 99.9175 45.848C102.648 44.312 105.293 43.544 107.853 43.544C110.072 43.544 111.608 44.0987 112.461 45.208C113.315 46.232 113.741 47.4693 113.741 48.92C113.741 51.5653 112.931 53.7413 111.309 55.448C109.773 57.1547 107.853 58.5627 105.549 59.672C103.245 60.696 101.027 61.5493 98.8935 62.232C97.6135 62.5733 96.1202 62.9147 94.4135 63.256C92.7068 63.5973 91.0855 63.768 89.5495 63.768C88.9522 65.304 88.4828 66.7973 88.1415 68.248C87.8002 69.6987 87.6295 71.0213 87.6295 72.216C87.6295 73.6667 87.9708 74.8613 88.6535 75.8C89.4215 76.7387 90.6588 77.208 92.3655 77.208C93.0482 77.208 93.8588 77.1227 94.7975 76.952C95.7362 76.7813 96.7602 76.5253 97.8695 76.184C100.429 75.3307 102.947 73.9653 105.421 72.088C107.896 70.2107 110.157 68.2053 112.205 66.072C114.339 63.8533 115.96 62.0187 117.069 60.568C117.325 60.824 117.453 61.1227 117.453 61.464C117.453 61.8907 117.155 62.5733 116.557 63.512C114.851 65.9013 112.632 68.376 109.901 70.936C107.171 73.496 104.141 75.672 100.813 77.464C97.4855 79.1707 94.0295 80.024 90.4455 80.024ZM90.5735 61.208C91.6828 61.2933 92.9202 61.2933 94.2855 61.208C95.7362 61.0373 97.1442 60.7387 98.5095 60.312C102.008 59.288 104.525 57.6667 106.061 55.448C107.683 53.144 108.493 51.096 108.493 49.304C108.493 48.28 108.28 47.4267 107.853 46.744C107.427 46.0613 106.744 45.72 105.805 45.72C103.331 45.72 101.112 46.6587 99.1495 48.536C97.1868 50.328 95.4802 52.4187 94.0295 54.808C92.5788 57.1973 91.4268 59.3307 90.5735 61.208ZM123.472 80.792C123.131 80.792 123.131 80.4507 123.472 79.768C123.899 79 124.283 78.1467 124.624 77.208C125.051 76.2693 125.478 75.2453 125.904 74.136C126.758 72.088 127.696 69.784 128.72 67.224C129.744 64.664 130.726 62.1893 131.664 59.8C132.603 57.3253 133.414 55.2347 134.096 53.528C134.864 51.736 135.376 50.584 135.632 50.072C134.438 51.352 132.987 52.9733 131.28 54.936C129.659 56.8133 128.123 58.648 126.672 60.44C125.222 62.232 124.112 63.64 123.344 64.664C123.088 65.0053 122.875 65.176 122.704 65.176C122.534 65.176 122.448 64.9627 122.448 64.536C122.448 63.8533 122.662 63.2133 123.088 62.616C124.71 60.568 126.502 58.264 128.464 55.704C130.512 53.144 132.347 50.7973 133.968 48.664C135.59 46.4453 136.614 44.9947 137.04 44.312C137.979 44.1413 139.344 43.8853 141.136 43.544C143.014 43.2027 144.294 42.7333 144.976 42.136C145.232 41.88 145.488 41.752 145.744 41.752C145.915 41.752 146 41.9227 146 42.264C146.086 42.52 146 42.8187 145.744 43.16C145.232 43.672 144.464 44.7813 143.44 46.488C142.502 48.1947 141.435 50.1573 140.24 52.376C139.046 54.5947 137.894 56.728 136.784 58.776C137.638 57.496 138.747 56.0027 140.112 54.296C141.563 52.504 143.142 50.7973 144.848 49.176C146.555 47.4693 148.262 46.0613 149.968 44.952C151.76 43.8427 153.424 43.288 154.96 43.288C156.07 43.288 157.008 43.544 157.776 44.056C158.544 44.4827 159.142 45.2933 159.568 46.488C159.824 47.0853 159.952 47.768 159.952 48.536C159.952 49.9867 159.568 51.3947 158.8 52.76C158.118 54.04 157.606 55.0213 157.264 55.704C157.179 55.96 156.88 56.216 156.368 56.472C155.856 56.6427 155.643 56.5573 155.728 56.216C155.814 55.7893 155.856 55.3627 155.856 54.936C155.942 54.5093 155.984 54.04 155.984 53.528C155.984 52.0773 155.686 50.7547 155.088 49.56C154.576 48.3653 153.595 47.768 152.144 47.768C150.779 47.768 149.115 48.6213 147.152 50.328C145.19 52.0347 143.227 53.9973 141.264 56.216C138.79 59.1173 136.827 61.8907 135.376 64.536C133.926 67.096 132.731 69.6133 131.792 72.088C131.28 73.4533 130.768 74.8187 130.256 76.184C129.744 77.464 129.36 78.488 129.104 79.256C127.995 79.3413 126.886 79.5973 125.776 80.024C124.667 80.536 123.899 80.792 123.472 80.792ZM191.883 30.104C190.689 30.104 189.835 29.72 189.323 28.952C188.982 28.5253 188.811 27.9707 188.811 27.288C188.811 25.9227 189.451 24.8133 190.731 23.96C191.67 23.448 192.523 23.192 193.291 23.192C194.571 23.192 195.467 23.576 195.979 24.344C196.321 24.7707 196.491 25.3253 196.491 26.008C196.491 27.3733 195.809 28.4827 194.443 29.336C193.675 29.848 192.822 30.104 191.883 30.104ZM169.611 79.384C168.758 79.384 168.033 79.2133 167.435 78.872C166.923 78.5307 166.667 77.8907 166.667 76.952C166.667 75.7573 166.966 74.3493 167.563 72.728C168.246 71.1067 168.971 69.4853 169.739 67.864C170.593 66.2427 171.233 64.92 171.659 63.896C172.257 62.7013 172.982 61.1653 173.835 59.288C174.774 57.3253 175.627 55.4907 176.395 53.784C177.249 51.992 177.846 50.7547 178.187 50.072C176.993 51.352 175.542 52.9733 173.835 54.936C172.214 56.8133 170.678 58.648 169.227 60.44C167.777 62.232 166.667 63.64 165.899 64.664C165.643 65.0053 165.43 65.176 165.259 65.176C165.089 65.176 165.003 64.9627 165.003 64.536C165.003 63.8533 165.217 63.2133 165.643 62.616C167.265 60.568 169.057 58.264 171.019 55.704C173.067 53.144 174.902 50.7973 176.523 48.664C178.145 46.4453 179.169 44.9947 179.595 44.312C180.534 44.1413 181.899 43.8853 183.691 43.544C185.569 43.2027 186.849 42.7333 187.531 42.136C187.787 41.88 188.043 41.752 188.299 41.752C188.47 41.752 188.555 41.9227 188.555 42.264C188.641 42.52 188.555 42.8187 188.299 43.16C187.787 43.7573 186.891 45.208 185.611 47.512C184.331 49.816 182.966 52.376 181.515 55.192C180.15 57.9227 178.87 60.3973 177.675 62.616C176.481 64.92 175.457 67.1387 174.603 69.272C173.75 71.4053 173.323 72.9413 173.323 73.88C173.323 75.0747 173.921 75.672 175.115 75.672C176.225 75.672 177.633 74.9893 179.339 73.624C181.131 72.2587 182.923 70.6373 184.715 68.76C186.507 66.7973 188.086 65.0053 189.451 63.384C189.878 62.872 190.39 62.2747 190.987 61.592C191.67 60.824 192.097 60.3547 192.267 60.184C192.438 60.3547 192.523 60.6533 192.523 61.08C192.438 61.6773 192.225 62.2747 191.883 62.872C191.542 63.384 191.201 63.8533 190.859 64.28C189.067 66.4987 187.105 68.8027 184.971 71.192C182.838 73.496 180.491 75.4587 177.931 77.08C175.371 78.616 172.598 79.384 169.611 79.384ZM204.86 80.024C201.362 80.024 198.93 79.3413 197.564 77.976C196.199 76.6107 195.516 74.9467 195.516 72.984C195.516 70.5093 196.156 67.864 197.436 65.048C198.802 62.232 200.082 59.8427 201.276 57.88C202.642 55.832 204.476 53.6987 206.78 51.48C209.084 49.2613 211.602 47.384 214.332 45.848C217.063 44.312 219.708 43.544 222.268 43.544C224.487 43.544 226.023 44.0987 226.876 45.208C227.73 46.232 228.156 47.4693 228.156 48.92C228.156 51.5653 227.346 53.7413 225.724 55.448C224.188 57.1547 222.268 58.5627 219.964 59.672C217.66 60.696 215.442 61.5493 213.308 62.232C212.028 62.5733 210.535 62.9147 208.828 63.256C207.122 63.5973 205.5 63.768 203.964 63.768C203.367 65.304 202.898 66.7973 202.556 68.248C202.215 69.6987 202.044 71.0213 202.044 72.216C202.044 73.6667 202.386 74.8613 203.068 75.8C203.836 76.7387 205.074 77.208 206.78 77.208C207.463 77.208 208.274 77.1227 209.212 76.952C210.151 76.7813 211.175 76.5253 212.284 76.184C214.844 75.3307 217.362 73.9653 219.836 72.088C222.311 70.2107 224.572 68.2053 226.62 66.072C228.754 63.8533 230.375 62.0187 231.484 60.568C231.74 60.824 231.868 61.1227 231.868 61.464C231.868 61.8907 231.57 62.5733 230.972 63.512C229.266 65.9013 227.047 68.376 224.316 70.936C221.586 73.496 218.556 75.672 215.228 77.464C211.9 79.1707 208.444 80.024 204.86 80.024ZM204.988 61.208C206.098 61.2933 207.335 61.2933 208.7 61.208C210.151 61.0373 211.559 60.7387 212.924 60.312C216.423 59.288 218.94 57.6667 220.476 55.448C222.098 53.144 222.908 51.096 222.908 49.304C222.908 48.28 222.695 47.4267 222.268 46.744C221.842 46.0613 221.159 45.72 220.22 45.72C217.746 45.72 215.527 46.6587 213.564 48.536C211.602 50.328 209.895 52.4187 208.444 54.808C206.994 57.1973 205.842 59.3307 204.988 61.208ZM237.887 80.92C237.546 80.92 237.546 80.536 237.887 79.768C238.314 79 238.698 78.1467 239.039 77.208C239.466 76.2693 239.893 75.2453 240.319 74.136C241.173 72.088 242.111 69.784 243.135 67.224C244.159 64.664 245.141 62.1893 246.079 59.8C247.018 57.3253 247.829 55.2347 248.511 53.528C249.279 51.736 249.791 50.584 250.047 50.072C248.853 51.352 247.402 52.9733 245.695 54.936C244.074 56.8133 242.538 58.648 241.087 60.44C239.637 62.232 238.527 63.64 237.759 64.664C237.503 65.0053 237.29 65.176 237.119 65.176C236.949 65.176 236.863 64.9627 236.863 64.536C236.863 63.8533 237.077 63.2133 237.503 62.616C239.125 60.568 240.917 58.264 242.879 55.704C244.927 53.144 246.762 50.7973 248.383 48.664C250.005 46.4453 251.029 44.9947 251.455 44.312C252.394 44.1413 253.759 43.8853 255.551 43.544C257.429 43.2027 258.709 42.7333 259.391 42.136C259.647 41.88 259.903 41.752 260.159 41.752C260.33 41.752 260.415 41.9227 260.415 42.264C260.501 42.52 260.415 42.8187 260.159 43.16C259.647 43.7573 258.751 45.1653 257.471 47.384C256.277 49.5173 254.954 51.9067 253.503 54.552C252.138 57.1973 250.858 59.5867 249.663 61.72C250.687 60.3547 251.797 59.032 252.991 57.752C254.186 56.472 255.338 55.2347 256.447 54.04C257.471 53.016 258.879 51.736 260.671 50.2C262.463 48.664 264.341 47.256 266.303 45.976C268.266 44.696 269.973 43.9707 271.423 43.8C271.765 43.7147 272.063 43.672 272.319 43.672C272.661 43.672 272.917 43.672 273.087 43.672C274.965 43.672 275.903 44.3547 275.903 45.72C275.903 46.744 275.349 48.1093 274.239 49.816C273.642 50.7547 272.703 52.3333 271.423 54.552C270.229 56.6853 268.991 59.032 267.711 61.592C266.517 64.0667 265.45 66.4133 264.511 68.632C263.658 70.7653 263.231 72.344 263.231 73.368C263.231 74.5627 263.829 75.16 265.023 75.16C266.474 75.16 268.053 74.4347 269.759 72.984C271.551 71.5333 273.471 69.6987 275.519 67.48C277.567 65.176 279.615 62.744 281.663 60.184C281.834 60.3547 281.919 60.6533 281.919 61.08C281.919 61.6773 281.706 62.2747 281.279 62.872C280.938 63.384 280.597 63.8533 280.255 64.28C279.402 65.3893 278.25 66.7973 276.799 68.504C275.434 70.1253 274.026 71.7467 272.575 73.368C271.125 74.904 269.802 76.1413 268.607 77.08C267.754 77.6773 266.645 78.3173 265.279 79C263.914 79.6827 262.549 80.024 261.183 80.024C259.647 80.024 258.581 79.64 257.983 78.872C257.386 78.0187 257.087 76.9947 257.087 75.8C257.087 74.4347 257.343 72.984 257.855 71.448C258.367 69.912 258.922 68.4613 259.519 67.096C260.202 65.6453 260.714 64.5787 261.055 63.896C262.591 60.9093 263.999 58.0933 265.279 55.448C266.559 52.8027 267.455 50.9253 267.967 49.816C268.223 49.304 268.351 48.8773 268.351 48.536C268.351 47.9387 267.882 47.896 266.943 48.408C266.005 48.92 264.853 49.688 263.487 50.712C262.207 51.736 261.013 52.76 259.903 53.784C258.794 54.7227 258.069 55.3627 257.727 55.704C254.57 59.032 251.797 62.744 249.407 66.84C247.103 70.8507 245.141 74.9893 243.519 79.256C242.41 79.3413 241.301 79.64 240.191 80.152C239.082 80.664 238.314 80.92 237.887 80.92ZM305.993 79.768C304.713 79.768 303.561 79.512 302.537 79C301.599 78.488 301.129 77.5493 301.129 76.184C301.129 75.416 301.3 74.5627 301.641 73.624C302.409 71.6613 303.433 69.272 304.713 66.456C306.079 63.64 307.444 60.9093 308.809 58.264C310.175 55.5333 311.241 53.3147 312.009 51.608C312.521 50.584 312.777 49.8587 312.777 49.432C312.777 48.664 312.351 48.4933 311.497 48.92C310.644 49.3467 309.705 49.944 308.681 50.712C307.657 51.48 306.889 52.0773 306.377 52.504C304.159 54.552 301.812 56.984 299.337 59.8C296.948 62.5307 294.729 65.432 292.681 68.504C290.719 71.4907 289.183 74.4773 288.073 77.464C287.988 77.976 287.433 78.4027 286.409 78.744C285.385 79.0853 284.447 79.256 283.593 79.256C282.228 79.256 281.716 78.8293 282.057 77.976C284.02 73.5387 286.025 68.632 288.073 63.256C290.207 57.88 292.596 52.376 295.241 46.744C297.204 42.4773 299.38 38.0827 301.769 33.56C304.244 29.0373 306.975 24.728 309.961 20.632C312.948 16.4507 316.233 12.7813 319.817 9.62399C322.975 6.89333 326.431 4.67466 330.185 2.96799C334.025 1.176 338.164 0.279999 342.601 0.279999C344.564 0.279999 346.271 0.706665 347.721 1.56C349.172 2.328 349.983 3.736 350.153 5.784V6.936C350.153 8.13066 350.025 9.32533 349.769 10.52C349.684 10.8613 349.343 11.032 348.745 11.032C348.489 11.032 348.404 10.9893 348.489 10.904C348.831 8.68533 348.233 7.10666 346.697 6.168C345.247 5.22933 343.369 4.75999 341.065 4.75999C336.884 4.75999 333.044 5.52799 329.545 7.064C326.047 8.6 322.804 10.648 319.817 13.208C315.209 17.2187 311.199 22.3387 307.785 28.568C304.372 34.7973 301.428 41.1547 298.953 47.64C297.759 50.7973 296.564 53.9547 295.369 57.112C294.26 60.2693 293.193 63.2133 292.169 65.944C296.009 60.824 299.679 56.4293 303.177 52.76C306.761 49.0907 309.876 46.488 312.521 44.952C314.655 43.7573 316.575 43.16 318.281 43.16C319.903 43.16 320.713 43.8427 320.713 45.208C320.713 46.4027 320.116 47.9387 318.921 49.816C318.324 50.7547 317.385 52.3333 316.105 54.552C314.911 56.7707 313.631 59.2027 312.265 61.848C310.985 64.408 309.876 66.7973 308.937 69.016C307.999 71.2347 307.529 72.856 307.529 73.88C307.529 75.2453 308.127 75.928 309.321 75.928C310.004 75.928 310.772 75.7147 311.625 75.288C312.564 74.8613 313.247 74.4773 313.673 74.136C315.977 72.4293 318.239 70.3387 320.457 67.864C322.676 65.3893 324.553 63.2133 326.089 61.336C326.175 61.2507 326.217 61.3787 326.217 61.72C326.217 62.0613 326.132 62.5733 325.961 63.256C325.876 63.8533 325.62 64.3653 325.193 64.792C324.255 66.072 323.273 67.3093 322.249 68.504C321.311 69.6133 320.372 70.7227 319.433 71.832C317.812 73.7093 315.849 75.5013 313.545 77.208C311.327 78.9147 308.809 79.768 305.993 79.768ZM349.763 79.384C348.909 79.384 348.184 79.2133 347.587 78.872C346.989 78.5307 346.691 77.8907 346.691 76.952C346.691 75.7573 346.989 74.392 347.587 72.856C348.184 71.32 348.867 69.8267 349.635 68.376C350.403 66.84 351.085 65.6027 351.683 64.664C348.696 67.8213 345.581 70.808 342.339 73.624C340.717 74.9893 338.925 76.2693 336.963 77.464C335 78.6587 332.909 79.256 330.691 79.256C329.837 79.256 329.24 79 328.899 78.488C328.557 77.8907 328.387 77.208 328.387 76.44C328.387 76.0133 328.429 75.7147 328.515 75.544C328.941 72.216 330.008 68.76 331.715 65.176C333.421 61.592 335.512 58.2213 337.987 55.064C340.461 51.9067 342.979 49.3467 345.539 47.384C348.44 45.1653 351.64 44.056 355.139 44.056H369.859C370.285 44.056 370.499 44.2267 370.499 44.568C370.499 45.2507 370.115 45.592 369.347 45.592C368.493 45.592 367.64 46.1467 366.787 47.256C365.933 48.28 365.293 49.1333 364.867 49.816C364.269 50.7547 363.331 52.3333 362.051 54.552C360.771 56.7707 359.448 59.2027 358.083 61.848C356.803 64.408 355.693 66.7973 354.755 69.016C353.816 71.2347 353.347 72.856 353.347 73.88C353.347 75.0747 353.944 75.672 355.139 75.672C356.419 75.672 357.869 75.0747 359.491 73.88C361.112 72.6853 362.733 71.2347 364.355 69.528C366.061 67.736 367.597 65.9867 368.963 64.28C370.413 62.488 371.565 61.08 372.419 60.056C372.931 60.568 372.888 61.2933 372.291 62.232C371.779 63.0853 371.309 63.768 370.883 64.28C369.176 66.4987 367.213 68.8027 364.995 71.192C362.776 73.496 360.344 75.4587 357.699 77.08C355.139 78.616 352.493 79.384 349.763 79.384ZM335.939 74.904C336.963 74.904 338.371 74.1787 340.163 72.728C342.04 71.192 344.045 69.3147 346.179 67.096C348.312 64.792 350.317 62.4027 352.195 59.928C354.072 57.368 355.608 55.064 356.803 53.016C358.083 50.8827 358.723 49.2613 358.723 48.152C358.723 47.2133 358.424 46.5733 357.827 46.232C357.315 45.8907 356.632 45.72 355.779 45.72C354.413 45.72 352.92 46.232 351.299 47.256C349.763 48.1947 348.525 49.1333 347.587 50.072C346.563 51.0107 345.325 52.504 343.875 54.552C342.509 56.5147 341.144 58.6907 339.779 61.08C338.413 63.4693 337.261 65.7733 336.323 67.992C335.384 70.2107 334.915 72.0027 334.915 73.368C334.915 74.392 335.256 74.904 335.939 74.904ZM384.827 79.384C383.974 79.384 383.249 79.2133 382.651 78.872C382.054 78.5307 381.755 77.8907 381.755 76.952C381.755 75.7573 382.054 74.3493 382.651 72.728C383.334 71.1067 384.059 69.4853 384.827 67.864C385.595 66.2427 386.235 64.92 386.747 63.896C387.771 61.9333 388.753 59.9707 389.691 58.008C390.63 56.0453 391.441 54.3813 392.123 53.016C392.806 51.736 393.147 50.8827 393.147 50.456C393.147 49.7733 392.635 49.7733 391.611 50.456C390.673 51.1387 389.777 51.8213 388.923 52.504C387.046 54.296 385.083 56.4293 383.035 58.904C380.987 61.2933 379.409 63.2133 378.299 64.664C378.043 65.0053 377.83 65.176 377.659 65.176C377.489 65.176 377.403 64.9627 377.403 64.536C377.403 63.8533 377.617 63.2133 378.043 62.616C379.238 60.9093 380.646 59.032 382.267 56.984C383.889 54.936 385.553 52.9733 387.259 51.096C388.881 49.3893 390.545 47.7253 392.251 46.104C393.958 44.4827 396.134 43.672 398.779 43.672C400.571 43.672 401.467 44.3547 401.467 45.72C401.467 46.9147 400.955 48.28 399.931 49.816C399.334 50.7547 398.395 52.3333 397.115 54.552C395.835 56.7707 394.513 59.2027 393.147 61.848C391.867 64.408 390.758 66.7973 389.819 69.016C388.881 71.2347 388.411 72.856 388.411 73.88C388.411 75.0747 389.009 75.672 390.203 75.672C391.142 75.672 392.294 75.2027 393.659 74.264C395.025 73.24 396.433 72.0453 397.883 70.68C400.529 68.12 402.918 65.3467 405.051 62.36C407.27 59.288 409.147 56.344 410.683 53.528C412.305 50.712 413.585 48.408 414.523 46.616C414.694 46.2747 414.865 45.8907 415.035 45.464C415.291 44.952 415.675 44.6533 416.187 44.568C416.699 44.4827 417.809 44.44 419.515 44.44C421.222 44.44 422.801 44.0987 424.251 43.416H424.507C424.763 43.416 424.891 43.544 424.891 43.8C424.891 44.4827 424.337 44.9947 423.227 45.336C422.203 45.6773 421.009 46.7013 419.643 48.408C418.363 50.1147 417.083 52.2053 415.803 54.68C414.523 57.0693 413.371 59.544 412.347 62.104C411.323 64.664 410.555 67.0107 410.043 69.144C409.531 71.2773 409.403 72.856 409.659 73.88C410.001 75.0747 410.598 75.672 411.451 75.672C412.561 75.672 414.097 74.9893 416.059 73.624C418.107 72.2587 420.198 70.6373 422.331 68.76C424.465 66.7973 426.214 65.0053 427.579 63.384C428.177 62.7013 428.731 62.0187 429.243 61.336C429.755 60.6533 430.097 60.2267 430.267 60.056C430.353 60.1413 430.438 60.312 430.523 60.568C430.609 60.7387 430.651 60.9093 430.651 61.08C430.566 61.6773 430.353 62.2747 430.011 62.872C429.67 63.384 429.286 63.8533 428.859 64.28C427.238 66.4133 425.275 68.6747 422.971 71.064C420.753 73.368 418.321 75.3307 415.675 76.952C413.115 78.5733 410.47 79.384 407.739 79.384C406.886 79.384 405.905 79.1707 404.795 78.744C403.771 78.3173 403.259 77.3787 403.259 75.928C403.259 74.8187 403.558 73.3253 404.155 71.448C404.753 69.4853 405.393 67.5653 406.075 65.688C406.843 63.7253 407.483 62.2747 407.995 61.336C406.886 62.9573 405.521 64.792 403.899 66.84C402.363 68.8027 400.785 70.552 399.163 72.088C397.03 74.136 394.726 75.8853 392.251 77.336C389.862 78.7013 387.387 79.384 384.827 79.384ZM443.269 81.048C441.733 81.048 440.112 80.8347 438.405 80.408C436.699 79.9813 435.163 79.2987 433.797 78.36C432.517 77.336 431.664 75.9707 431.237 74.264C431.152 74.008 431.109 73.624 431.109 73.112C431.109 71.9173 431.365 70.5947 431.877 69.144C432.475 67.6933 433.2 66.6693 434.053 66.072C434.395 65.9013 434.651 65.9013 434.821 66.072C435.077 66.2427 435.12 66.4133 434.949 66.584C434.864 66.84 434.736 67.1813 434.565 67.608C434.395 67.9493 434.267 68.3333 434.181 68.76C433.925 70.9787 434.395 72.9413 435.589 74.648C436.101 75.3307 436.699 75.9707 437.381 76.568C438.149 77.1653 438.875 77.6773 439.557 78.104C440.155 78.4453 440.88 78.7013 441.733 78.872C442.587 78.9573 443.44 79 444.293 79C445.659 79 446.981 78.8293 448.261 78.488C449.541 78.1467 450.48 77.592 451.077 76.824C452.187 75.4587 452.741 73.9227 452.741 72.216C452.741 70.936 452.4 69.5707 451.717 68.12C451.035 66.6693 449.968 65.1333 448.517 63.512C447.579 62.488 446.683 61.3787 445.829 60.184C444.976 58.9893 444.421 57.7093 444.165 56.344C444.08 56.088 443.995 55.832 443.909 55.576C443.909 55.32 443.909 55.064 443.909 54.808C442.8 56.4293 441.648 57.9653 440.453 59.416C439.344 60.7813 438.363 61.976 437.509 63C437.168 63.512 436.869 63.768 436.613 63.768C436.443 63.768 436.357 63.5973 436.357 63.256C436.357 62.488 436.699 61.6773 437.381 60.824C438.064 60.056 438.832 59.1173 439.685 58.008C440.539 56.8133 441.221 55.8747 441.733 55.192C443.184 53.0587 444.251 51.3947 444.933 50.2C445.701 48.92 446.512 47.768 447.365 46.744C448.304 45.6347 449.456 44.7387 450.821 44.056C452.272 43.3733 453.765 43.032 455.301 43.032C457.093 43.032 458.715 43.3307 460.165 43.928C461.701 44.44 462.512 45.8053 462.597 48.024C462.597 49.048 462.384 50.1147 461.957 51.224C461.616 52.248 461.232 53.2293 460.805 54.168C460.549 54.68 460.165 55.064 459.653 55.32C459.227 55.4907 459.013 55.4053 459.013 55.064C459.013 54.7227 459.056 54.3387 459.141 53.912C459.227 53.4853 459.269 53.1013 459.269 52.76C459.269 51.3093 459.013 50.0293 458.501 48.92C458.075 47.7253 457.435 46.872 456.581 46.36C455.728 45.7627 454.832 45.464 453.893 45.464C452.528 45.464 451.205 46.0187 449.925 47.128C448.645 48.152 448.005 49.5173 448.005 51.224C448.005 51.3947 448.005 51.608 448.005 51.864C448.005 52.12 448.048 52.3333 448.133 52.504C448.475 53.8693 449.499 55.4053 451.205 57.112C452.912 58.8187 454.235 60.312 455.173 61.592C456.795 63.8107 457.605 66.072 457.605 68.376C457.605 70.68 456.923 72.8133 455.557 74.776C454.277 76.6533 452.528 78.1467 450.309 79.256C448.176 80.4507 445.829 81.048 443.269 81.048ZM512.821 80.28C510.175 80.28 507.658 79.5547 505.269 78.104C502.879 76.568 501.087 74.264 499.893 71.192C499.466 70.0827 499.167 68.9307 498.997 67.736C498.826 66.456 498.741 65.2187 498.741 64.024C498.741 62.8293 498.954 62.232 499.381 62.232C499.893 62.232 500.149 62.5733 500.149 63.256C500.149 67.2667 501.13 70.296 503.093 72.344C505.141 74.392 507.658 75.416 510.645 75.416C513.631 75.416 516.49 74.5627 519.221 72.856C522.037 71.1493 524.639 68.9733 527.029 66.328C530.954 62.0613 534.282 57.752 537.013 53.4C539.743 48.9627 542.218 44.44 544.437 39.832C546.741 35.1387 549.045 30.2747 551.349 25.24C552.799 22.168 554.591 19.48 556.725 17.176C558.943 14.872 561.589 13.2933 564.661 12.44L564.789 12.312H557.749C554.762 12.312 551.605 12.44 548.277 12.696C544.949 12.952 541.919 13.5067 539.189 14.36C536.543 15.2133 534.623 16.4933 533.429 18.2C532.661 19.3093 532.277 20.5893 532.277 22.04C532.277 23.4907 532.661 24.8987 533.429 26.264C534.197 27.6293 535.178 28.6107 536.373 29.208C536.543 29.3787 536.629 29.5067 536.629 29.592C536.629 29.7627 536.415 29.976 535.989 30.232C535.647 30.4027 535.263 30.4453 534.837 30.36C534.154 29.9333 533.301 29.2507 532.277 28.312C531.253 27.288 530.314 26.2213 529.461 25.112C528.693 24.0027 528.181 23.064 527.925 22.296C527.583 21.272 527.413 20.248 527.413 19.224C527.413 17.176 528.138 15.512 529.589 14.232C531.125 12.952 533.087 11.9707 535.477 11.288C537.866 10.6053 540.426 10.136 543.157 9.88C545.973 9.53866 548.661 9.368 551.221 9.368C553.866 9.28266 556.127 9.24 558.005 9.24H571.829C571.999 9.24 572.085 9.28266 572.085 9.368C572.085 9.624 571.786 10.008 571.189 10.52C570.677 10.9467 570.335 11.16 570.165 11.16C568.031 11.5867 566.453 12.7387 565.429 14.616C564.405 16.408 563.935 19.3093 564.021 23.32C564.021 23.32 564.021 24.2587 564.021 26.136C564.106 28.0133 564.191 30.4453 564.277 33.432C564.362 36.4187 564.447 39.6187 564.533 43.032C564.618 46.4453 564.703 49.7307 564.789 52.888C564.874 56.0453 564.959 58.6907 565.045 60.824V61.592L609.461 14.744C612.277 11.7573 615.05 9.24 617.781 7.19199C620.597 5.05866 623.498 4.12 626.485 4.376C626.57 4.376 626.613 4.41867 626.613 4.504C626.698 4.504 626.741 4.504 626.741 4.504C626.741 4.75999 626.57 5.05866 626.229 5.39999C625.887 5.74133 625.503 5.95466 625.077 6.03999C622.858 5.95466 620.853 6.808 619.061 8.6C617.269 10.392 615.605 12.5253 614.069 15C613.301 16.28 612.149 18.328 610.613 21.144C609.077 23.8747 607.327 27.1173 605.365 30.872C603.487 34.6267 601.567 38.5947 599.605 42.776C597.642 46.9573 595.807 51.0533 594.101 55.064C592.479 59.0747 591.157 62.744 590.133 66.072C589.109 69.3147 588.597 71.96 588.597 74.008C588.597 76.3973 589.407 77.592 591.029 77.592C591.711 77.592 592.437 77.4213 593.205 77.08C594.314 76.6533 595.551 76.0133 596.917 75.16C598.282 74.3067 599.519 73.3253 600.629 72.216C602.847 70.0827 604.81 67.9067 606.517 65.688C608.223 63.384 609.247 62.0613 609.589 61.72C609.845 61.3787 610.058 61.208 610.229 61.208C610.57 61.208 610.741 61.464 610.741 61.976C610.741 62.488 610.57 62.9573 610.229 63.384C609.546 64.2373 608.394 65.7307 606.773 67.864C605.151 69.912 603.231 72.0027 601.013 74.136C598.879 76.2693 596.575 77.8907 594.101 79C593.333 79.3413 592.522 79.5973 591.669 79.768C590.815 80.024 589.962 80.152 589.109 80.152C587.231 80.152 585.525 79.5973 583.989 78.488C582.538 77.2933 581.813 75.3307 581.813 72.6C581.813 69.9547 582.41 66.968 583.605 63.64C584.885 60.2267 586.293 56.9413 587.829 53.784C589.45 50.5413 590.773 47.8107 591.797 45.592C592.906 43.288 594.314 40.344 596.021 36.76C597.727 33.176 599.69 29.5493 601.909 25.88L565.045 64.792C564.959 65.4747 564.661 66.1573 564.149 66.84C563.637 67.4373 562.826 67.9493 561.717 68.376C561.119 68.632 560.309 69.3147 559.285 70.424C558.261 71.5333 557.578 72.3013 557.237 72.728C557.237 72.8133 557.109 72.856 556.853 72.856C556.597 72.856 556.341 72.7707 556.085 72.6C555.829 72.4293 555.743 72.3013 555.829 72.216C558.047 69.4 559.199 65.5173 559.285 60.568L559.413 57.496C559.583 53.912 559.711 50.1573 559.797 46.232C559.882 42.2213 559.925 38.5093 559.925 35.096C560.01 31.5973 560.053 28.7813 560.053 26.648C560.053 24.4293 560.053 23.32 560.053 23.32C560.053 21.272 560.351 19.48 560.949 17.944C561.546 16.408 562.271 15.0853 563.125 13.976C561.674 15.0853 560.266 16.408 558.901 17.944C557.535 19.48 556.383 21.1867 555.445 23.064C554.165 25.7093 552.714 29.1227 551.093 33.304C549.471 37.4853 547.594 41.9227 545.461 46.616C543.413 51.3093 541.109 55.9173 538.549 60.44C536.074 64.8773 533.301 68.7173 530.229 71.96C528.095 74.264 525.365 76.2267 522.037 77.848C518.794 79.4693 515.722 80.28 512.821 80.28ZM623.422 79.384C622.569 79.384 621.844 79.2133 621.246 78.872C620.649 78.5307 620.35 77.8907 620.35 76.952C620.35 75.7573 620.649 74.3493 621.246 72.728C621.929 71.1067 622.654 69.4853 623.422 67.864C624.19 66.2427 624.83 64.92 625.342 63.896C626.366 61.9333 627.348 59.9707 628.286 58.008C629.225 56.0453 630.036 54.3813 630.718 53.016C631.401 51.736 631.742 50.8827 631.742 50.456C631.742 49.7733 631.23 49.7733 630.206 50.456C629.268 51.1387 628.372 51.8213 627.518 52.504C625.641 54.296 623.678 56.4293 621.63 58.904C619.582 61.2933 618.004 63.2133 616.894 64.664C616.638 65.0053 616.425 65.176 616.254 65.176C616.084 65.176 615.998 64.9627 615.998 64.536C615.998 63.8533 616.212 63.2133 616.638 62.616C617.833 60.9093 619.241 59.032 620.862 56.984C622.484 54.936 624.148 52.9733 625.854 51.096C627.476 49.3893 629.14 47.7253 630.846 46.104C632.553 44.4827 634.729 43.672 637.374 43.672C639.166 43.672 640.062 44.3547 640.062 45.72C640.062 46.9147 639.55 48.28 638.526 49.816C637.929 50.7547 636.99 52.3333 635.71 54.552C634.43 56.7707 633.108 59.2027 631.742 61.848C630.462 64.408 629.353 66.7973 628.414 69.016C627.476 71.2347 627.006 72.856 627.006 73.88C627.006 75.0747 627.604 75.672 628.798 75.672C629.737 75.672 630.889 75.2027 632.254 74.264C633.62 73.24 635.028 72.0453 636.478 70.68C639.124 68.12 641.513 65.3467 643.646 62.36C645.865 59.288 647.742 56.344 649.278 53.528C650.9 50.712 652.18 48.408 653.118 46.616C653.289 46.2747 653.46 45.8907 653.63 45.464C653.886 44.952 654.27 44.6533 654.782 44.568C655.294 44.4827 656.404 44.44 658.11 44.44C659.817 44.44 661.396 44.0987 662.846 43.416H663.102C663.358 43.416 663.486 43.544 663.486 43.8C663.486 44.4827 662.932 44.9947 661.822 45.336C660.798 45.6773 659.604 46.7013 658.238 48.408C656.958 50.1147 655.678 52.2053 654.398 54.68C653.118 57.0693 651.966 59.544 650.942 62.104C649.918 64.664 649.15 67.0107 648.638 69.144C648.126 71.2773 647.998 72.856 648.254 73.88C648.596 75.0747 649.193 75.672 650.046 75.672C651.156 75.672 652.692 74.9893 654.654 73.624C656.702 72.2587 658.793 70.6373 660.926 68.76C663.06 66.7973 664.809 65.0053 666.174 63.384C666.772 62.7013 667.326 62.0187 667.838 61.336C668.35 60.6533 668.692 60.2267 668.862 60.056C668.948 60.1413 669.033 60.312 669.118 60.568C669.204 60.7387 669.246 60.9093 669.246 61.08C669.161 61.6773 668.948 62.2747 668.606 62.872C668.265 63.384 667.881 63.8533 667.454 64.28C665.833 66.4133 663.87 68.6747 661.566 71.064C659.348 73.368 656.916 75.3307 654.27 76.952C651.71 78.5733 649.065 79.384 646.334 79.384C645.481 79.384 644.5 79.1707 643.39 78.744C642.366 78.3173 641.854 77.3787 641.854 75.928C641.854 74.8187 642.153 73.3253 642.75 71.448C643.348 69.4853 643.988 67.5653 644.67 65.688C645.438 63.7253 646.078 62.2747 646.59 61.336C645.481 62.9573 644.116 64.792 642.494 66.84C640.958 68.8027 639.38 70.552 637.758 72.088C635.625 74.136 633.321 75.8853 630.846 77.336C628.457 78.7013 625.982 79.384 623.422 79.384ZM681.865 81.048C680.329 81.048 678.707 80.8347 677.001 80.408C675.294 79.9813 673.758 79.2987 672.393 78.36C671.113 77.336 670.259 75.9707 669.833 74.264C669.747 74.008 669.705 73.624 669.705 73.112C669.705 71.9173 669.961 70.5947 670.473 69.144C671.07 67.6933 671.795 66.6693 672.649 66.072C672.99 65.9013 673.246 65.9013 673.417 66.072C673.673 66.2427 673.715 66.4133 673.545 66.584C673.459 66.84 673.331 67.1813 673.161 67.608C672.99 67.9493 672.862 68.3333 672.777 68.76C672.521 70.9787 672.99 72.9413 674.185 74.648C674.697 75.3307 675.294 75.9707 675.977 76.568C676.745 77.1653 677.47 77.6773 678.153 78.104C678.75 78.4453 679.475 78.7013 680.329 78.872C681.182 78.9573 682.035 79 682.889 79C684.254 79 685.577 78.8293 686.857 78.488C688.137 78.1467 689.075 77.592 689.673 76.824C690.782 75.4587 691.337 73.9227 691.337 72.216C691.337 70.936 690.995 69.5707 690.313 68.12C689.63 66.6693 688.563 65.1333 687.113 63.512C686.174 62.488 685.278 61.3787 684.425 60.184C683.571 58.9893 683.017 57.7093 682.761 56.344C682.675 56.088 682.59 55.832 682.505 55.576C682.505 55.32 682.505 55.064 682.505 54.808C681.395 56.4293 680.243 57.9653 679.049 59.416C677.939 60.7813 676.958 61.976 676.105 63C675.763 63.512 675.465 63.768 675.209 63.768C675.038 63.768 674.953 63.5973 674.953 63.256C674.953 62.488 675.294 61.6773 675.977 60.824C676.659 60.056 677.427 59.1173 678.281 58.008C679.134 56.8133 679.817 55.8747 680.329 55.192C681.779 53.0587 682.846 51.3947 683.529 50.2C684.297 48.92 685.107 47.768 685.961 46.744C686.899 45.6347 688.051 44.7387 689.417 44.056C690.867 43.3733 692.361 43.032 693.897 43.032C695.689 43.032 697.31 43.3307 698.761 43.928C700.297 44.44 701.107 45.8053 701.193 48.024C701.193 49.048 700.979 50.1147 700.553 51.224C700.211 52.248 699.827 53.2293 699.401 54.168C699.145 54.68 698.761 55.064 698.249 55.32C697.822 55.4907 697.609 55.4053 697.609 55.064C697.609 54.7227 697.651 54.3387 697.737 53.912C697.822 53.4853 697.865 53.1013 697.865 52.76C697.865 51.3093 697.609 50.0293 697.097 48.92C696.67 47.7253 696.03 46.872 695.177 46.36C694.323 45.7627 693.427 45.464 692.489 45.464C691.123 45.464 689.801 46.0187 688.521 47.128C687.241 48.152 686.601 49.5173 686.601 51.224C686.601 51.3947 686.601 51.608 686.601 51.864C686.601 52.12 686.643 52.3333 686.729 52.504C687.07 53.8693 688.094 55.4053 689.801 57.112C691.507 58.8187 692.83 60.312 693.769 61.592C695.39 63.8107 696.201 66.072 696.201 68.376C696.201 70.68 695.518 72.8133 694.153 74.776C692.873 76.6533 691.123 78.1467 688.905 79.256C686.771 80.4507 684.425 81.048 681.865 81.048ZM716.991 80.024C713.833 80.024 711.615 79.4267 710.335 78.232C709.055 77.0373 708.415 75.5013 708.415 73.624C708.415 71.1493 709.225 68.4187 710.847 65.432C712.468 62.36 714.004 59.8 715.455 57.752C716.905 55.7893 718.527 53.9547 720.319 52.248C722.196 50.456 724.201 48.92 726.335 47.64C727.7 46.7867 729.535 45.8907 731.839 44.952C734.228 43.928 736.233 43.416 737.855 43.416C739.817 43.416 741.183 43.8853 741.951 44.824C742.719 45.6773 743.103 46.744 743.103 48.024C743.103 49.048 742.932 50.1147 742.591 51.224C742.249 52.248 741.865 53.2293 741.439 54.168C741.183 54.68 740.799 55.064 740.287 55.32C739.775 55.4907 739.519 55.4053 739.519 55.064C739.519 54.6373 739.561 54.2533 739.647 53.912C739.732 53.5707 739.775 53.1867 739.775 52.76C739.775 51.1387 739.391 49.56 738.623 48.024C737.94 46.4027 736.873 45.592 735.423 45.592C733.887 45.592 732.223 46.1467 730.431 47.256C728.639 48.28 727.401 49.176 726.719 49.944C724.5 52.248 722.324 55.1067 720.191 58.52C718.143 61.9333 716.649 65.176 715.711 68.248C715.113 70.04 714.815 71.576 714.815 72.856C714.815 74.3067 715.199 75.3307 715.967 75.928C716.735 76.5253 717.673 76.824 718.783 76.824C719.636 76.824 720.532 76.696 721.471 76.44C722.495 76.184 723.561 75.8853 724.671 75.544C727.231 74.6907 729.791 73.368 732.351 71.576C734.996 69.6987 737.385 67.736 739.519 65.688C741.652 63.5547 743.273 61.72 744.383 60.184C744.553 60.3547 744.639 60.6107 744.639 60.952C744.639 61.3787 744.468 61.8907 744.127 62.488C743.785 63 743.529 63.4267 743.359 63.768C741.567 66.1573 739.22 68.632 736.319 71.192C733.417 73.6667 730.26 75.7573 726.847 77.464C723.519 79.1707 720.233 80.024 716.991 80.024ZM768.739 79.768C767.459 79.768 766.307 79.512 765.283 79C764.344 78.488 763.875 77.5493 763.875 76.184C763.875 75.416 764.045 74.5627 764.387 73.624C765.155 71.6613 766.179 69.272 767.459 66.456C768.824 63.64 770.189 60.9093 771.555 58.264C772.92 55.5333 773.987 53.3147 774.755 51.608C775.267 50.584 775.523 49.8587 775.523 49.432C775.523 48.664 775.096 48.4933 774.243 48.92C773.389 49.3467 772.451 49.944 771.427 50.712C770.403 51.48 769.635 52.0773 769.123 52.504C766.904 54.552 764.557 56.984 762.083 59.8C759.693 62.5307 757.475 65.432 755.427 68.504C753.464 71.4907 751.928 74.4773 750.819 77.464C750.733 77.976 750.179 78.4027 749.155 78.744C748.131 79.0853 747.192 79.256 746.339 79.256C744.973 79.256 744.461 78.8293 744.803 77.976C746.765 73.5387 748.771 68.632 750.819 63.256C752.952 57.88 755.341 52.376 757.987 46.744C759.949 42.4773 762.125 38.0827 764.515 33.56C766.989 29.0373 769.72 24.728 772.707 20.632C775.693 16.4507 778.979 12.7813 782.563 9.62399C785.72 6.89333 789.176 4.67466 792.931 2.96799C796.771 1.176 800.909 0.279999 805.347 0.279999C807.309 0.279999 809.016 0.706665 810.467 1.56C811.917 2.328 812.728 3.736 812.899 5.784V6.936C812.899 8.13066 812.771 9.32533 812.515 10.52C812.429 10.8613 812.088 11.032 811.491 11.032C811.235 11.032 811.149 10.9893 811.235 10.904C811.576 8.68533 810.979 7.10666 809.443 6.168C807.992 5.22933 806.115 4.75999 803.811 4.75999C799.629 4.75999 795.789 5.52799 792.291 7.064C788.792 8.6 785.549 10.648 782.563 13.208C777.955 17.2187 773.944 22.3387 770.531 28.568C767.117 34.7973 764.173 41.1547 761.699 47.64C760.504 50.7973 759.309 53.9547 758.115 57.112C757.005 60.2693 755.939 63.2133 754.915 65.944C758.755 60.824 762.424 56.4293 765.923 52.76C769.507 49.0907 772.621 46.488 775.267 44.952C777.4 43.7573 779.32 43.16 781.027 43.16C782.648 43.16 783.459 43.8427 783.459 45.208C783.459 46.4027 782.861 47.9387 781.667 49.816C781.069 50.7547 780.131 52.3333 778.851 54.552C777.656 56.7707 776.376 59.2027 775.011 61.848C773.731 64.408 772.621 66.7973 771.683 69.016C770.744 71.2347 770.275 72.856 770.275 73.88C770.275 75.2453 770.872 75.928 772.067 75.928C772.749 75.928 773.517 75.7147 774.371 75.288C775.309 74.8613 775.992 74.4773 776.419 74.136C778.723 72.4293 780.984 70.3387 783.203 67.864C785.421 65.3893 787.299 63.2133 788.835 61.336C788.92 61.2507 788.963 61.3787 788.963 61.72C788.963 62.0613 788.877 62.5733 788.707 63.256C788.621 63.8533 788.365 64.3653 787.939 64.792C787 66.072 786.019 67.3093 784.995 68.504C784.056 69.6133 783.117 70.7227 782.179 71.832C780.557 73.7093 778.595 75.5013 776.291 77.208C774.072 78.9147 771.555 79.768 768.739 79.768ZM802.395 80.024C798.897 80.024 796.465 79.3413 795.099 77.976C793.734 76.6107 793.051 74.9467 793.051 72.984C793.051 70.5093 793.691 67.864 794.971 65.048C796.337 62.232 797.617 59.8427 798.811 57.88C800.177 55.832 802.011 53.6987 804.315 51.48C806.619 49.2613 809.137 47.384 811.867 45.848C814.598 44.312 817.243 43.544 819.803 43.544C822.022 43.544 823.558 44.0987 824.411 45.208C825.265 46.232 825.691 47.4693 825.691 48.92C825.691 51.5653 824.881 53.7413 823.259 55.448C821.723 57.1547 819.803 58.5627 817.499 59.672C815.195 60.696 812.977 61.5493 810.843 62.232C809.563 62.5733 808.07 62.9147 806.363 63.256C804.657 63.5973 803.035 63.768 801.499 63.768C800.902 65.304 800.433 66.7973 800.091 68.248C799.75 69.6987 799.579 71.0213 799.579 72.216C799.579 73.6667 799.921 74.8613 800.603 75.8C801.371 76.7387 802.609 77.208 804.315 77.208C804.998 77.208 805.809 77.1227 806.747 76.952C807.686 76.7813 808.71 76.5253 809.819 76.184C812.379 75.3307 814.897 73.9653 817.371 72.088C819.846 70.2107 822.107 68.2053 824.155 66.072C826.289 63.8533 827.91 62.0187 829.02 60.568C829.275 60.824 829.403 61.1227 829.403 61.464C829.403 61.8907 829.105 62.5733 828.507 63.512C826.801 65.9013 824.582 68.376 821.851 70.936C819.121 73.496 816.091 75.672 812.763 77.464C809.435 79.1707 805.979 80.024 802.395 80.024ZM802.523 61.208C803.633 61.2933 804.87 61.2933 806.235 61.208C807.686 61.0373 809.094 60.7387 810.459 60.312C813.958 59.288 816.475 57.6667 818.011 55.448C819.633 53.144 820.443 51.096 820.443 49.304C820.443 48.28 820.23 47.4267 819.803 46.744C819.377 46.0613 818.694 45.72 817.755 45.72C815.281 45.72 813.062 46.6587 811.099 48.536C809.137 50.328 807.43 52.4187 805.979 54.808C804.529 57.1973 803.377 59.3307 802.523 61.208ZM843.102 79.256C840.542 79.256 838.793 78.6587 837.854 77.464C836.916 76.184 836.446 74.648 836.446 72.856C836.446 70.4667 836.958 67.9067 837.982 65.176C839.092 62.4453 839.988 60.312 840.67 58.776C839.561 59.9707 838.494 61.1227 837.47 62.232C836.446 63.3413 835.721 64.152 835.294 64.664C835.038 65.0053 834.825 65.176 834.654 65.176C834.484 65.176 834.398 64.9627 834.398 64.536C834.398 63.8533 834.612 63.2133 835.038 62.616C836.233 61.08 837.598 59.4587 839.134 57.752C840.67 56.0453 842.164 54.2533 843.614 52.376C845.321 49.2187 847.198 45.5493 849.246 41.368C851.38 37.1013 853.556 32.7493 855.774 28.312C858.078 23.7893 860.297 19.6507 862.43 15.896C864.649 12.056 866.612 8.984 868.318 6.68C869.769 6.08266 871.134 5.31466 872.414 4.376C873.78 3.43733 875.102 2.58399 876.382 1.81599C877.748 0.962662 879.156 0.535995 880.606 0.535995C881.545 0.535995 882.228 0.791995 882.654 1.30399C883.166 1.816 883.508 2.41333 883.678 3.09599C883.764 3.35199 883.806 3.82133 883.806 4.504C883.806 6.46666 883.124 8.856 881.758 11.672C880.478 14.488 878.942 17.2613 877.15 19.992C875.444 22.6373 873.95 24.8133 872.67 26.52C869.257 31.2987 865.758 35.6507 862.174 39.576C858.59 43.416 855.348 46.6587 852.446 49.304C849.63 51.864 847.582 53.7413 846.302 54.936C845.705 56.0453 844.98 57.5387 844.126 59.416C843.358 61.208 842.676 63.128 842.078 65.176C841.481 67.1387 841.182 68.9733 841.182 70.68C841.182 72.1307 841.524 73.368 842.206 74.392C842.889 75.3307 844.041 75.8 845.662 75.8C845.918 75.8 846.174 75.8 846.43 75.8C846.686 75.8 846.985 75.7573 847.326 75.672C848.777 75.416 850.356 74.6053 852.062 73.24C853.769 71.8747 855.476 70.296 857.182 68.504C858.889 66.712 860.425 65.0053 861.79 63.384C862.388 62.7013 862.942 62.0613 863.454 61.464C863.966 60.7813 864.308 60.312 864.478 60.056C865.076 60.6533 865.033 61.4213 864.35 62.36C863.753 63.2133 863.241 63.9387 862.814 64.536C862.217 65.304 861.364 66.3707 860.254 67.736C859.145 69.016 857.865 70.424 856.414 71.96C854.793 73.5813 852.788 75.2027 850.398 76.824C848.009 78.4453 845.577 79.256 843.102 79.256ZM848.478 49.816C851.124 47.5973 854.452 44.44 858.462 40.344C862.558 36.1627 866.569 31.128 870.494 25.24C870.921 24.5573 871.604 23.4053 872.542 21.784C873.566 20.1627 874.59 18.328 875.614 16.28C876.724 14.1467 877.662 12.0987 878.43 10.136C879.198 8.08799 879.582 6.33866 879.582 4.88799C879.582 3.52266 879.198 2.84 878.43 2.84C877.492 2.84 876.254 3.65066 874.718 5.272C872.926 7.14933 870.878 9.92266 868.574 13.592C866.356 17.176 864.009 21.1867 861.534 25.624C859.06 30.0613 856.67 34.4133 854.366 38.68C852.148 42.9467 850.185 46.6587 848.478 49.816ZM892.621 79.64C890.488 79.64 888.867 78.9147 887.757 77.464C887.075 76.44 886.392 74.904 885.709 72.856C885.027 70.808 884.429 68.6747 883.917 66.456C883.405 64.2373 882.979 62.4453 882.637 61.08C880.248 64.152 878.115 67.224 876.237 70.296C874.445 73.368 873.251 75.7573 872.653 77.464C872.483 77.976 871.885 78.4027 870.861 78.744C869.923 79.0853 868.984 79.256 868.045 79.256C866.68 79.256 866.168 78.8293 866.509 77.976C869.155 72.088 871.672 66.4133 874.061 60.952C876.451 55.4907 878.968 49.9867 881.613 44.44C884.344 38.8933 887.416 33.1333 890.829 27.16C893.219 22.808 896.077 18.6267 899.405 14.616C902.819 10.52 906.445 7.192 910.285 4.632C914.125 1.98666 918.008 0.663994 921.933 0.663994C923.213 0.663994 924.408 1.00533 925.517 1.688C926.627 2.37066 927.181 3.43733 927.181 4.88799V8.6C927.181 8.94133 926.925 9.112 926.413 9.112C926.157 9.112 926.029 9.02666 926.029 8.856C926.029 7.49066 925.432 6.59467 924.237 6.168C923.043 5.656 921.891 5.39999 920.781 5.39999C917.795 5.39999 914.765 5.99733 911.693 7.19199C908.28 8.55733 905.421 10.6053 903.117 13.336C900.813 16.0667 898.68 18.968 896.717 22.04C894.157 25.9653 891.64 30.5733 889.165 35.864C886.691 41.0693 884.387 46.3173 882.253 51.608C880.205 56.8987 878.371 61.6773 876.749 65.944C877.688 64.7493 878.627 63.5547 879.565 62.36C880.504 61.1653 881.4 60.056 882.253 59.032C882.253 58.8613 882.211 58.6907 882.125 58.52C882.125 58.3493 882.125 58.1787 882.125 58.008C882.125 57.4107 882.253 56.8987 882.509 56.472C882.765 56.0453 883.107 55.5333 883.533 54.936C884.131 54.0827 884.685 53.4427 885.197 53.016C885.709 52.504 886.264 51.864 886.861 51.096L887.245 53.272C891 49.432 894.285 46.6587 897.101 44.952C899.064 43.7573 900.984 43.16 902.861 43.16C904.739 43.16 905.677 43.8853 905.677 45.336C905.677 46.5307 905.08 48.024 903.885 49.816C903.459 50.4133 903.203 50.84 903.117 51.096C903.032 51.352 902.861 51.608 902.605 51.864C902.52 51.9493 902.349 51.9493 902.093 51.864C901.837 51.7787 901.709 51.6507 901.709 51.48C901.709 50.456 901.368 49.816 900.685 49.56C900.003 49.2187 899.235 49.048 898.381 49.048C896.76 49.048 895.011 49.6453 893.133 50.84C891.341 51.9493 889.507 53.4853 887.629 55.448C888.056 57.5813 888.525 59.928 889.037 62.488C889.635 64.9627 890.275 67.2667 890.957 69.4C891.64 71.5333 892.28 73.112 892.877 74.136C893.304 74.8187 893.901 75.288 894.669 75.544C895.437 75.7147 896.077 75.8 896.589 75.8C897.784 75.8 899.149 75.2027 900.685 74.008C902.307 72.728 903.928 71.2347 905.549 69.528C907.256 67.736 908.792 65.9867 910.157 64.28C911.608 62.5733 912.717 61.208 913.485 60.184C913.827 60.6107 913.912 61.0373 913.741 61.464C913.656 61.976 913.4 62.5307 912.973 63.128C912.632 63.64 912.291 64.1093 911.949 64.536C910.243 66.6693 908.408 68.8453 906.445 71.064C904.483 73.1973 902.392 75.1173 900.173 76.824C899.235 77.592 898.083 78.2747 896.717 78.872C895.352 79.384 893.987 79.64 892.621 79.64ZM919.657 80.792C919.316 80.792 919.316 80.4507 919.657 79.768C920.084 79 920.468 78.1467 920.809 77.208C921.236 76.2693 921.663 75.2453 922.089 74.136C922.943 72.088 923.881 69.784 924.905 67.224C925.929 64.664 926.911 62.1893 927.849 59.8C928.788 57.3253 929.599 55.2347 930.281 53.528C931.049 51.736 931.561 50.584 931.817 50.072C930.623 51.352 929.172 52.9733 927.465 54.936C925.844 56.8133 924.308 58.648 922.857 60.44C921.407 62.232 920.297 63.64 919.529 64.664C919.273 65.0053 919.06 65.176 918.889 65.176C918.719 65.176 918.633 64.9627 918.633 64.536C918.633 63.8533 918.847 63.2133 919.273 62.616C920.895 60.568 922.687 58.264 924.649 55.704C926.697 53.144 928.532 50.7973 930.153 48.664C931.775 46.4453 932.799 44.9947 933.225 44.312C934.164 44.1413 935.529 43.8853 937.321 43.544C939.199 43.2027 940.479 42.7333 941.161 42.136C941.417 41.88 941.673 41.752 941.929 41.752C942.1 41.752 942.185 41.9227 942.185 42.264C942.271 42.52 942.185 42.8187 941.929 43.16C941.417 43.672 940.649 44.7813 939.625 46.488C938.687 48.1947 937.62 50.1573 936.425 52.376C935.231 54.5947 934.079 56.728 932.969 58.776C933.823 57.496 934.932 56.0027 936.297 54.296C937.748 52.504 939.327 50.7973 941.033 49.176C942.74 47.4693 944.447 46.0613 946.153 44.952C947.945 43.8427 949.609 43.288 951.145 43.288C952.255 43.288 953.193 43.544 953.961 44.056C954.729 44.4827 955.327 45.2933 955.753 46.488C956.009 47.0853 956.137 47.768 956.137 48.536C956.137 49.9867 955.753 51.3947 954.985 52.76C954.303 54.04 953.791 55.0213 953.449 55.704C953.364 55.96 953.065 56.216 952.553 56.472C952.041 56.6427 951.828 56.5573 951.913 56.216C951.999 55.7893 952.041 55.3627 952.041 54.936C952.127 54.5093 952.169 54.04 952.169 53.528C952.169 52.0773 951.871 50.7547 951.273 49.56C950.761 48.3653 949.78 47.768 948.329 47.768C946.964 47.768 945.3 48.6213 943.337 50.328C941.375 52.0347 939.412 53.9973 937.449 56.216C934.975 59.1173 933.012 61.8907 931.561 64.536C930.111 67.096 928.916 69.6133 927.977 72.088C927.465 73.4533 926.953 74.8187 926.441 76.184C925.929 77.464 925.545 78.488 925.289 79.256C924.18 79.3413 923.071 79.5973 921.961 80.024C920.852 80.536 920.084 80.792 919.657 80.792ZM978.853 79.384C977.999 79.384 977.274 79.2133 976.677 78.872C976.079 78.5307 975.781 77.8907 975.781 76.952C975.781 75.7573 976.079 74.392 976.677 72.856C977.274 71.32 977.957 69.8267 978.725 68.376C979.493 66.84 980.175 65.6027 980.773 64.664C977.786 67.8213 974.671 70.808 971.429 73.624C969.807 74.9893 968.015 76.2693 966.053 77.464C964.09 78.6587 961.999 79.256 959.781 79.256C958.927 79.256 958.33 79 957.989 78.488C957.647 77.8907 957.477 77.208 957.477 76.44C957.477 76.0133 957.519 75.7147 957.605 75.544C958.031 72.216 959.098 68.76 960.805 65.176C962.511 61.592 964.602 58.2213 967.077 55.064C969.551 51.9067 972.069 49.3467 974.629 47.384C977.53 45.1653 980.73 44.056 984.229 44.056H998.949C999.375 44.056 999.589 44.2267 999.589 44.568C999.589 45.2507 999.205 45.592 998.437 45.592C997.583 45.592 996.73 46.1467 995.877 47.256C995.023 48.28 994.383 49.1333 993.957 49.816C993.359 50.7547 992.421 52.3333 991.141 54.552C989.861 56.7707 988.538 59.2027 987.173 61.848C985.893 64.408 984.783 66.7973 983.845 69.016C982.906 71.2347 982.437 72.856 982.437 73.88C982.437 75.0747 983.034 75.672 984.229 75.672C985.509 75.672 986.959 75.0747 988.581 73.88C990.202 72.6853 991.823 71.2347 993.445 69.528C995.151 67.736 996.687 65.9867 998.053 64.28C999.503 62.488 1000.66 61.08 1001.51 60.056C1002.02 60.568 1001.98 61.2933 1001.38 62.232C1000.87 63.0853 1000.4 63.768 999.973 64.28C998.266 66.4987 996.303 68.8027 994.085 71.192C991.866 73.496 989.434 75.4587 986.789 77.08C984.229 78.616 981.583 79.384 978.853 79.384ZM965.029 74.904C966.053 74.904 967.461 74.1787 969.253 72.728C971.13 71.192 973.135 69.3147 975.269 67.096C977.402 64.792 979.407 62.4027 981.285 59.928C983.162 57.368 984.698 55.064 985.893 53.016C987.173 50.8827 987.813 49.2613 987.813 48.152C987.813 47.2133 987.514 46.5733 986.917 46.232C986.405 45.8907 985.722 45.72 984.869 45.72C983.503 45.72 982.01 46.232 980.389 47.256C978.853 48.1947 977.615 49.1333 976.677 50.072C975.653 51.0107 974.415 52.504 972.965 54.552C971.599 56.5147 970.234 58.6907 968.869 61.08C967.503 63.4693 966.351 65.7733 965.413 67.992C964.474 70.2107 964.005 72.0027 964.005 73.368C964.005 74.392 964.346 74.904 965.029 74.904ZM1012.13 80.152C1011.02 80.152 1009.69 79.9387 1008.16 79.512C1006.62 79.1707 1005.85 78.232 1005.85 76.696C1005.85 76.0987 1005.98 75.416 1006.24 74.648C1006.49 73.88 1006.75 73.1973 1007.01 72.6C1007.86 70.3813 1008.75 68.12 1009.69 65.816C1010.63 63.512 1011.61 61.1653 1012.64 58.776C1011.53 60.056 1010.46 61.2507 1009.44 62.36C1008.5 63.384 1007.82 64.152 1007.39 64.664C1007.13 65.0053 1006.92 65.176 1006.75 65.176C1006.58 65.176 1006.49 64.9627 1006.49 64.536C1006.49 63.8533 1006.71 63.2133 1007.13 62.616C1008.33 61.08 1009.69 59.4587 1011.23 57.752C1012.77 56.0453 1014.26 54.2533 1015.71 52.376C1019.29 44.8667 1023.3 37.6133 1027.74 30.616C1032.18 23.5333 1037.17 17.2613 1042.72 11.8C1044.42 10.1787 1046.34 8.51466 1048.48 6.808C1050.61 5.10133 1052.87 3.65066 1055.26 2.45599C1057.74 1.26133 1060.17 0.663994 1062.56 0.663994C1063.84 0.663994 1064.99 1.00533 1066.01 1.688C1067.12 2.37066 1067.72 3.43733 1067.81 4.88799V8.6C1067.81 8.94133 1067.55 9.112 1067.04 9.112C1066.78 9.112 1066.65 9.02666 1066.65 8.856C1066.65 7.49066 1066.06 6.59467 1064.86 6.168C1063.67 5.656 1062.47 5.39999 1061.28 5.39999C1056.58 5.39999 1052.36 6.63733 1048.61 9.112C1044.85 11.5013 1041.52 14.6587 1038.62 18.584C1035.72 22.424 1033.12 26.6907 1030.81 31.384C1028.51 35.992 1026.42 40.5573 1024.54 45.08C1022.75 49.5173 1021.04 53.4853 1019.42 56.984C1019.42 56.984 1019.42 57.0693 1019.42 57.24C1019.42 57.4107 1019.46 57.496 1019.55 57.496C1019.63 57.496 1020.32 56.856 1021.6 55.576C1022.96 54.2107 1024.63 52.632 1026.59 50.84C1028.64 49.048 1030.77 47.512 1032.99 46.232C1035.21 44.8667 1037.26 44.184 1039.13 44.184C1040.07 44.184 1040.67 44.5253 1040.93 45.208C1041.18 45.8053 1041.31 46.488 1041.31 47.256V48.408C1040.88 51.5653 1039.77 54.9787 1037.98 58.648C1036.27 62.3173 1034.06 65.816 1031.33 69.144C1028.68 72.3867 1025.69 75.032 1022.37 77.08C1019.12 79.128 1015.71 80.152 1012.13 80.152ZM1014.17 77.976C1015.54 77.976 1016.99 77.464 1018.53 76.44C1020.15 75.3307 1021.38 74.3493 1022.24 73.496C1023.26 72.5573 1024.5 71.1067 1025.95 69.144C1027.4 67.096 1028.81 64.8773 1030.17 62.488C1031.54 60.0987 1032.69 57.7947 1033.63 55.576C1034.57 53.3573 1035.04 51.5653 1035.04 50.2C1035.04 49.7733 1034.95 49.3893 1034.78 49.048C1034.61 48.7067 1034.31 48.536 1033.89 48.536C1033.12 48.536 1032.09 49.0053 1030.81 49.944C1029.62 50.8827 1028.3 52.0347 1026.85 53.4C1025.48 54.68 1024.2 55.96 1023.01 57.24C1021.9 58.4347 1021.09 59.3307 1020.57 59.928C1019.63 60.952 1018.44 62.4453 1016.99 64.408C1015.54 66.3707 1014.22 68.376 1013.02 70.424C1011.91 72.3867 1011.36 74.0507 1011.36 75.416C1011.36 77.1227 1012.3 77.976 1014.17 77.976ZM1054.18 80.152C1053.07 80.152 1051.75 79.9387 1050.21 79.512C1048.68 79.1707 1047.91 78.232 1047.91 76.696C1047.91 76.0987 1048.04 75.416 1048.29 74.648C1048.55 73.88 1048.8 73.1973 1049.06 72.6C1049.91 70.3813 1050.81 68.12 1051.75 65.816C1052.69 63.512 1053.67 61.1653 1054.69 58.776C1053.58 60.056 1052.52 61.2507 1051.49 62.36C1050.55 63.384 1049.87 64.152 1049.44 64.664C1049.19 65.0053 1048.98 65.176 1048.8 65.176C1048.63 65.176 1048.55 64.9627 1048.55 64.536C1048.55 63.8533 1048.76 63.2133 1049.19 62.616C1050.38 61.08 1051.75 59.4587 1053.28 57.752C1054.82 56.0453 1056.31 54.2533 1057.76 52.376C1061.35 44.8667 1065.36 37.6133 1069.8 30.616C1074.23 23.5333 1079.23 17.2613 1084.77 11.8C1086.48 10.1787 1088.4 8.51466 1090.53 6.808C1092.67 5.10133 1094.93 3.65066 1097.32 2.45599C1099.79 1.26133 1102.22 0.663994 1104.61 0.663994C1105.89 0.663994 1107.04 1.00533 1108.07 1.688C1109.18 2.37066 1109.78 3.43733 1109.86 4.88799V8.6C1109.86 8.94133 1109.6 9.112 1109.09 9.112C1108.84 9.112 1108.71 9.02666 1108.71 8.856C1108.71 7.49066 1108.11 6.59467 1106.92 6.168C1105.72 5.656 1104.53 5.39999 1103.33 5.39999C1098.64 5.39999 1094.42 6.63733 1090.66 9.112C1086.91 11.5013 1083.58 14.6587 1080.68 18.584C1077.78 22.424 1075.17 26.6907 1072.87 31.384C1070.56 35.992 1068.47 40.5573 1066.6 45.08C1064.8 49.5173 1063.1 53.4853 1061.48 56.984C1061.48 56.984 1061.48 57.0693 1061.48 57.24C1061.48 57.4107 1061.52 57.496 1061.6 57.496C1061.69 57.496 1062.37 56.856 1063.65 55.576C1065.02 54.2107 1066.68 52.632 1068.64 50.84C1070.69 49.048 1072.83 47.512 1075.04 46.232C1077.26 44.8667 1079.31 44.184 1081.19 44.184C1082.13 44.184 1082.72 44.5253 1082.98 45.208C1083.24 45.8053 1083.36 46.488 1083.36 47.256V48.408C1082.94 51.5653 1081.83 54.9787 1080.04 58.648C1078.33 62.3173 1076.11 65.816 1073.38 69.144C1070.74 72.3867 1067.75 75.032 1064.42 77.08C1061.18 79.128 1057.76 80.152 1054.18 80.152ZM1056.23 77.976C1057.59 77.976 1059.04 77.464 1060.58 76.44C1062.2 75.3307 1063.44 74.3493 1064.29 73.496C1065.32 72.5573 1066.55 71.1067 1068 69.144C1069.46 67.096 1070.86 64.8773 1072.23 62.488C1073.59 60.0987 1074.75 57.7947 1075.68 55.576C1076.62 53.3573 1077.09 51.5653 1077.09 50.2C1077.09 49.7733 1077.01 49.3893 1076.84 49.048C1076.67 48.7067 1076.37 48.536 1075.94 48.536C1075.17 48.536 1074.15 49.0053 1072.87 49.944C1071.67 50.8827 1070.35 52.0347 1068.9 53.4C1067.54 54.68 1066.26 55.96 1065.06 57.24C1063.95 58.4347 1063.14 59.3307 1062.63 59.928C1061.69 60.952 1060.5 62.4453 1059.04 64.408C1057.59 66.3707 1056.27 68.376 1055.08 70.424C1053.97 72.3867 1053.41 74.0507 1053.41 75.416C1053.41 77.1227 1054.35 77.976 1056.23 77.976ZM1098.16 80.024C1094.66 80.024 1092.22 79.3413 1090.86 77.976C1089.49 76.6107 1088.81 74.9467 1088.81 72.984C1088.81 70.5093 1089.45 67.864 1090.73 65.048C1092.1 62.232 1093.38 59.8427 1094.57 57.88C1095.94 55.832 1097.77 53.6987 1100.08 51.48C1102.38 49.2613 1104.9 47.384 1107.63 45.848C1110.36 44.312 1113 43.544 1115.56 43.544C1117.78 43.544 1119.32 44.0987 1120.17 45.208C1121.02 46.232 1121.45 47.4693 1121.45 48.92C1121.45 51.5653 1120.64 53.7413 1119.02 55.448C1117.48 57.1547 1115.56 58.5627 1113.26 59.672C1110.96 60.696 1108.74 61.5493 1106.6 62.232C1105.32 62.5733 1103.83 62.9147 1102.12 63.256C1100.42 63.5973 1098.8 63.768 1097.26 63.768C1096.66 65.304 1096.19 66.7973 1095.85 68.248C1095.51 69.6987 1095.34 71.0213 1095.34 72.216C1095.34 73.6667 1095.68 74.8613 1096.36 75.8C1097.13 76.7387 1098.37 77.208 1100.08 77.208C1100.76 77.208 1101.57 77.1227 1102.51 76.952C1103.45 76.7813 1104.47 76.5253 1105.58 76.184C1108.14 75.3307 1110.66 73.9653 1113.13 72.088C1115.61 70.2107 1117.87 68.2053 1119.92 66.072C1122.05 63.8533 1123.67 62.0187 1124.78 60.568C1125.04 60.824 1125.16 61.1227 1125.16 61.464C1125.16 61.8907 1124.86 62.5733 1124.27 63.512C1122.56 65.9013 1120.34 68.376 1117.61 70.936C1114.88 73.496 1111.85 75.672 1108.52 77.464C1105.2 79.1707 1101.74 80.024 1098.16 80.024ZM1098.28 61.208C1099.39 61.2933 1100.63 61.2933 1102 61.208C1103.45 61.0373 1104.85 60.7387 1106.22 60.312C1109.72 59.288 1112.24 57.6667 1113.77 55.448C1115.39 53.144 1116.2 51.096 1116.2 49.304C1116.2 48.28 1115.99 47.4267 1115.56 46.744C1115.14 46.0613 1114.45 45.72 1113.52 45.72C1111.04 45.72 1108.82 46.6587 1106.86 48.536C1104.9 50.328 1103.19 52.4187 1101.74 54.808C1100.29 57.1973 1099.14 59.3307 1098.28 61.208Z" fill="#B9E3AE"/>
</g>
<defs>
<filter id="filter0_d_19_288" x="0.713501" y="0.279999" width="1136.45" height="92.584" filterUnits="userSpaceOnUse" color-interpolation-filters="sRGB">
<feFlood flood-opacity="0" result="BackgroundImageFix"/>
<feColorMatrix in="SourceAlpha" type="matrix" values="0 0 0 0 0 0 0 0 0 0 0 0 0 0 0 0 0 0 127 0" result="hardAlpha"/>
<feOffset dx="8" dy="5"/>
<feGaussianBlur stdDeviation="2"/>
<feComposite in2="hardAlpha" operator="out"/>
<feColorMatrix type="matrix" values="0 0 0 0 0 0 0 0 0 0 0 0 0 0 0 0 0 0 0.5 0"/>
<feBlend mode="normal" in2="BackgroundImageFix" result="effect1_dropShadow_19_288"/>
<feBlend mode="normal" in="SourceGraphic" in2="effect1_dropShadow_19_288" result="shape"/>
</filter>
</defs>
</svg>
