<?xml version="1.0" encoding="UTF-8"?>
<svg id="Layer_1" data-name="Layer 1" xmlns="http://www.w3.org/2000/svg" viewBox="0 0 1124.45 83.58">
  <path d="M13.95,83.58c-2.65,0-5.16-.77-7.55-2.3-2.39-1.45-4.18-3.71-5.38-6.78-.43-1.11-.73-2.3-.9-3.58-.09-1.28-.13-2.52-.13-3.71v-1.66c0-.6,.04-1.15,.13-1.66,.17-.51,.51-.77,1.02-.77,.17,0,.26,.09,.26,.26,0,.51-.04,1.02-.13,1.54v1.54c0,4.01,.98,7.08,2.94,9.22,2.05,2.05,4.57,3.07,7.55,3.07s5.89-.85,8.7-2.56c2.82-1.79,5.42-4.01,7.81-6.66,1.37-1.45,2.9-3.63,4.61-6.53,1.79-2.99,3.63-6.31,5.5-9.98,1.96-3.75,3.93-7.59,5.89-11.52,1.96-4.01,3.84-7.85,5.63-11.52,1.79-3.75,3.41-7.04,4.86-9.86,1.37-2.65,3.2-4.74,5.5-6.27s4.27-2.6,5.89-3.2c-.6,0-1.88,.04-3.84,.13-1.88,.09-3.88,.17-6.02,.26-2.13,.09-3.84,.17-5.12,.26-3.24,.17-6.53,.55-9.86,1.15-3.33,.6-6.27,1.41-8.83,2.43-2.56,1.02-4.39,2.35-5.5,3.97-.77,1.11-1.15,2.39-1.15,3.84,0,2.9,1.28,4.99,3.84,6.27l.26,.26c0,.26-.21,.51-.64,.77-.43,.17-.85,.21-1.28,.13-.68-.43-1.54-1.11-2.56-2.05-.94-1.02-1.83-2.09-2.69-3.2-.77-1.11-1.28-2.05-1.54-2.82-.43-1.28-.64-2.3-.64-3.07,0-2.05,.77-3.71,2.3-4.99,1.54-1.37,3.54-2.39,6.02-3.07,2.47-.77,5.12-1.28,7.94-1.54,2.82-.34,5.55-.55,8.19-.64,2.65-.09,4.91-.13,6.78-.13h11.65c3.5-.09,6.7-.13,9.6-.13s5.85,.04,8.58,.13c2.82,.09,5.76,.21,8.83,.38,2.22,.09,3.71,.51,4.48,1.28,.85,.77,1.28,1.71,1.28,2.82,0,1.45-.47,3.03-1.41,4.74-.94,1.71-1.79,3.29-2.56,4.74-.34,.68-.9,1.19-1.66,1.54-.77,.26-1.07,0-.9-.77s.34-1.58,.51-2.43c.17-.94,.26-1.83,.26-2.69,0-1.54-.3-2.9-.9-4.1-.6-1.28-1.62-2.18-3.07-2.69-.85-.34-1.88-.55-3.07-.64-1.19-.17-2.47-.26-3.84-.26-2.56,0-5.12,.26-7.68,.77-2.56,.51-4.57,1.32-6.02,2.43-1.79,1.37-3.63,3.58-5.5,6.66-1.79,3.07-3.5,6.36-5.12,9.86-1.62,3.5-3.07,6.57-4.35,9.22-.09,.17-.13,.43-.13,.77,0,.43,.38,.64,1.15,.64h4.99c2.22,0,4.52,.04,6.91,.13h6.14c1.88,0,3.37,.13,4.48,.38,1.11,.17,1.66,.73,1.66,1.66,0,.34-.21,1.02-.64,2.05-.6,1.37-1.28,2.56-2.05,3.58-.68,.94-1.24,1.92-1.66,2.94-.09,.34-.47,.64-1.15,.9-.68,.26-.94,.21-.77-.13,.34-.77,.68-1.71,1.02-2.82,.43-1.19,.64-2.22,.64-3.07,0-1.37-.6-2.05-1.79-2.05h-19.97c-.77,0-1.37,.34-1.79,1.02-2.47,4.95-5.16,10.24-8.06,15.87-2.82,5.63-6.1,10.45-9.86,14.46-2.13,2.3-4.61,4.18-7.42,5.63-2.82,1.45-5.72,2.18-8.7,2.18Zm75.78-3.84c-3.5,0-5.93-.68-7.3-2.05s-2.05-3.03-2.05-4.99c0-2.47,.64-5.12,1.92-7.94,1.37-2.82,2.65-5.21,3.84-7.17,1.37-2.05,3.2-4.18,5.5-6.4s4.82-4.1,7.55-5.63c2.73-1.54,5.38-2.3,7.94-2.3,2.22,0,3.76,.55,4.61,1.66,.85,1.02,1.28,2.26,1.28,3.71,0,2.65-.81,4.82-2.43,6.53-1.54,1.71-3.46,3.11-5.76,4.22-2.3,1.02-4.52,1.88-6.66,2.56-1.28,.34-2.77,.68-4.48,1.02-1.71,.34-3.33,.51-4.86,.51-.6,1.54-1.07,3.03-1.41,4.48s-.51,2.77-.51,3.97c0,1.45,.34,2.65,1.02,3.58,.77,.94,2.01,1.41,3.71,1.41,.68,0,1.49-.09,2.43-.26s1.96-.43,3.07-.77c2.56-.85,5.08-2.22,7.55-4.1,2.48-1.88,4.74-3.88,6.78-6.02,2.13-2.22,3.75-4.05,4.86-5.5,.26,.26,.38,.55,.38,.9,0,.43-.3,1.11-.9,2.05-1.71,2.39-3.92,4.86-6.66,7.42-2.73,2.56-5.76,4.74-9.09,6.53-3.33,1.71-6.78,2.56-10.37,2.56Zm.13-18.82c1.11,.09,2.35,.09,3.71,0,1.45-.17,2.86-.47,4.22-.9,3.5-1.02,6.02-2.65,7.55-4.86,1.62-2.3,2.43-4.35,2.43-6.14,0-1.02-.21-1.88-.64-2.56-.43-.68-1.11-1.02-2.05-1.02-2.47,0-4.69,.94-6.66,2.82-1.96,1.79-3.67,3.88-5.12,6.27-1.45,2.39-2.6,4.52-3.46,6.4Zm32.9,19.58c-.34,0-.34-.34,0-1.02,.43-.77,.81-1.62,1.15-2.56,.43-.94,.85-1.96,1.28-3.07,.85-2.05,1.79-4.35,2.82-6.91s2.01-5.03,2.94-7.42c.94-2.47,1.75-4.57,2.43-6.27,.77-1.79,1.28-2.94,1.54-3.46-1.19,1.28-2.65,2.9-4.35,4.86-1.62,1.88-3.16,3.71-4.61,5.5-1.45,1.79-2.56,3.2-3.33,4.22-.26,.34-.47,.51-.64,.51s-.26-.21-.26-.64c0-.68,.21-1.32,.64-1.92,1.62-2.05,3.41-4.35,5.38-6.91,2.05-2.56,3.88-4.91,5.5-7.04,1.62-2.22,2.65-3.67,3.07-4.35,.94-.17,2.3-.43,4.1-.77,1.88-.34,3.16-.81,3.84-1.41,.26-.26,.51-.38,.77-.38,.17,0,.26,.17,.26,.51,.09,.26,0,.55-.26,.9-.51,.51-1.28,1.62-2.3,3.33-.94,1.71-2.01,3.67-3.2,5.89-1.19,2.22-2.35,4.35-3.46,6.4,.85-1.28,1.96-2.77,3.33-4.48,1.45-1.79,3.03-3.5,4.74-5.12,1.71-1.71,3.41-3.11,5.12-4.22,1.79-1.11,3.46-1.66,4.99-1.66,1.11,0,2.05,.26,2.82,.77,.77,.43,1.37,1.24,1.79,2.43,.26,.6,.38,1.28,.38,2.05,0,1.45-.38,2.86-1.15,4.22-.68,1.28-1.19,2.26-1.54,2.94-.09,.26-.38,.51-.9,.77-.51,.17-.72,.09-.64-.26,.09-.43,.13-.85,.13-1.28,.09-.43,.13-.9,.13-1.41,0-1.45-.3-2.77-.9-3.97-.51-1.19-1.49-1.79-2.94-1.79-1.36,0-3.03,.85-4.99,2.56-1.96,1.71-3.92,3.67-5.89,5.89-2.47,2.9-4.44,5.67-5.89,8.32-1.45,2.56-2.65,5.08-3.58,7.55-.51,1.37-1.02,2.73-1.54,4.1-.51,1.28-.9,2.3-1.15,3.07-1.11,.09-2.22,.34-3.33,.77-1.11,.51-1.88,.77-2.3,.77ZM191.17,29.82c-1.19,0-2.05-.38-2.56-1.15-.34-.43-.51-.98-.51-1.66,0-1.37,.64-2.47,1.92-3.33,.94-.51,1.79-.77,2.56-.77,1.28,0,2.18,.38,2.69,1.15,.34,.43,.51,.98,.51,1.66,0,1.37-.68,2.47-2.05,3.33-.77,.51-1.62,.77-2.56,.77Zm-22.27,49.28c-.85,0-1.58-.17-2.18-.51-.51-.34-.77-.98-.77-1.92,0-1.19,.3-2.6,.9-4.22,.68-1.62,1.41-3.24,2.18-4.86,.85-1.62,1.49-2.94,1.92-3.97,.6-1.19,1.32-2.73,2.18-4.61,.94-1.96,1.79-3.8,2.56-5.5,.85-1.79,1.45-3.03,1.79-3.71-1.19,1.28-2.64,2.9-4.35,4.86-1.62,1.88-3.16,3.71-4.61,5.5-1.45,1.79-2.56,3.2-3.33,4.22-.26,.34-.47,.51-.64,.51s-.26-.21-.26-.64c0-.68,.21-1.32,.64-1.92,1.62-2.05,3.41-4.35,5.38-6.91,2.05-2.56,3.88-4.91,5.5-7.04,1.62-2.22,2.65-3.67,3.07-4.35,.94-.17,2.3-.43,4.1-.77,1.88-.34,3.16-.81,3.84-1.41,.26-.26,.51-.38,.77-.38,.17,0,.26,.17,.26,.51,.09,.26,0,.55-.26,.9-.51,.6-1.41,2.05-2.69,4.35-1.28,2.3-2.64,4.86-4.1,7.68-1.37,2.73-2.65,5.21-3.84,7.42-1.19,2.3-2.22,4.52-3.07,6.66-.85,2.13-1.28,3.67-1.28,4.61,0,1.19,.6,1.79,1.79,1.79,1.11,0,2.52-.68,4.22-2.05,1.79-1.37,3.58-2.99,5.38-4.86,1.79-1.96,3.37-3.75,4.74-5.38,.43-.51,.94-1.11,1.54-1.79,.68-.77,1.11-1.24,1.28-1.41,.17,.17,.26,.47,.26,.9-.08,.6-.3,1.19-.64,1.79-.34,.51-.68,.98-1.02,1.41-1.79,2.22-3.75,4.52-5.89,6.91-2.13,2.3-4.48,4.27-7.04,5.89-2.56,1.54-5.33,2.3-8.32,2.3Zm35.25,.64c-3.5,0-5.93-.68-7.3-2.05-1.36-1.37-2.05-3.03-2.05-4.99,0-2.47,.64-5.12,1.92-7.94,1.37-2.82,2.65-5.21,3.84-7.17,1.37-2.05,3.2-4.18,5.5-6.4s4.82-4.1,7.55-5.63c2.73-1.54,5.38-2.3,7.94-2.3,2.22,0,3.75,.55,4.61,1.66,.85,1.02,1.28,2.26,1.28,3.71,0,2.65-.81,4.82-2.43,6.53-1.54,1.71-3.46,3.11-5.76,4.22-2.3,1.02-4.52,1.88-6.66,2.56-1.28,.34-2.77,.68-4.48,1.02-1.71,.34-3.33,.51-4.86,.51-.6,1.54-1.07,3.03-1.41,4.48-.34,1.45-.51,2.77-.51,3.97,0,1.45,.34,2.65,1.02,3.58,.77,.94,2.01,1.41,3.71,1.41,.68,0,1.49-.09,2.43-.26,.94-.17,1.96-.43,3.07-.77,2.56-.85,5.08-2.22,7.55-4.1,2.48-1.88,4.74-3.88,6.78-6.02,2.13-2.22,3.76-4.05,4.86-5.5,.26,.26,.38,.55,.38,.9,0,.43-.3,1.11-.9,2.05-1.71,2.39-3.93,4.86-6.66,7.42-2.73,2.56-5.76,4.74-9.09,6.53-3.33,1.71-6.78,2.56-10.37,2.56Zm.13-18.82c1.11,.09,2.35,.09,3.71,0,1.45-.17,2.86-.47,4.22-.9,3.5-1.02,6.02-2.65,7.55-4.86,1.62-2.3,2.43-4.35,2.43-6.14,0-1.02-.21-1.88-.64-2.56-.43-.68-1.11-1.02-2.05-1.02-2.47,0-4.69,.94-6.66,2.82-1.96,1.79-3.67,3.88-5.12,6.27-1.45,2.39-2.6,4.52-3.46,6.4Zm32.9,19.71c-.34,0-.34-.38,0-1.15,.43-.77,.81-1.62,1.15-2.56,.43-.94,.85-1.96,1.28-3.07,.85-2.05,1.79-4.35,2.82-6.91s2.01-5.03,2.94-7.42c.94-2.47,1.75-4.57,2.43-6.27,.77-1.79,1.28-2.94,1.54-3.46-1.19,1.28-2.65,2.9-4.35,4.86-1.62,1.88-3.16,3.71-4.61,5.5-1.45,1.79-2.56,3.2-3.33,4.22-.26,.34-.47,.51-.64,.51s-.26-.21-.26-.64c0-.68,.21-1.32,.64-1.92,1.62-2.05,3.41-4.35,5.38-6.91,2.05-2.56,3.88-4.91,5.5-7.04,1.62-2.22,2.65-3.67,3.07-4.35,.94-.17,2.3-.43,4.1-.77,1.88-.34,3.16-.81,3.84-1.41,.26-.26,.51-.38,.77-.38,.17,0,.26,.17,.26,.51,.09,.26,0,.55-.26,.9-.51,.6-1.41,2.01-2.69,4.22-1.19,2.13-2.52,4.52-3.97,7.17-1.37,2.65-2.65,5.03-3.84,7.17,1.02-1.37,2.13-2.69,3.33-3.97,1.2-1.28,2.35-2.52,3.46-3.71,1.02-1.02,2.43-2.3,4.22-3.84,1.79-1.54,3.67-2.94,5.63-4.22,1.96-1.28,3.67-2.01,5.12-2.18,.34-.09,.64-.13,.9-.13h.77c1.88,0,2.82,.68,2.82,2.05,0,1.02-.55,2.39-1.66,4.1-.6,.94-1.54,2.52-2.82,4.74-1.19,2.13-2.43,4.48-3.71,7.04-1.19,2.47-2.26,4.82-3.2,7.04-.85,2.13-1.28,3.71-1.28,4.74,0,1.19,.6,1.79,1.79,1.79,1.45,0,3.03-.73,4.74-2.18,1.79-1.45,3.71-3.29,5.76-5.5,2.05-2.3,4.1-4.74,6.14-7.3,.17,.17,.26,.47,.26,.9,0,.6-.21,1.19-.64,1.79-.34,.51-.68,.98-1.02,1.41-.85,1.11-2.01,2.52-3.46,4.22-1.37,1.62-2.77,3.24-4.22,4.86-1.45,1.54-2.77,2.77-3.97,3.71-.85,.6-1.96,1.24-3.33,1.92-1.36,.68-2.73,1.02-4.1,1.02-1.54,0-2.6-.38-3.2-1.15-.6-.85-.9-1.88-.9-3.07,0-1.37,.26-2.82,.77-4.35,.51-1.54,1.07-2.99,1.66-4.35,.68-1.45,1.19-2.52,1.54-3.2,1.54-2.99,2.94-5.8,4.22-8.45,1.28-2.65,2.18-4.52,2.69-5.63,.26-.51,.38-.94,.38-1.28,0-.6-.47-.64-1.41-.13-.94,.51-2.09,1.28-3.46,2.3-1.28,1.02-2.47,2.05-3.58,3.07-1.11,.94-1.83,1.58-2.18,1.92-3.16,3.33-5.93,7.04-8.32,11.14-2.3,4.01-4.27,8.15-5.89,12.42-1.11,.09-2.22,.38-3.33,.9-1.11,.51-1.88,.77-2.3,.77Zm68.11-1.15c-1.28,0-2.43-.26-3.46-.77-.94-.51-1.41-1.45-1.41-2.82,0-.77,.17-1.62,.51-2.56,.77-1.96,1.79-4.35,3.07-7.17,1.37-2.82,2.73-5.55,4.1-8.19,1.37-2.73,2.43-4.95,3.2-6.66,.51-1.02,.77-1.75,.77-2.18,0-.77-.43-.94-1.28-.51-.85,.43-1.79,1.02-2.82,1.79-1.02,.77-1.79,1.37-2.3,1.79-2.22,2.05-4.57,4.48-7.04,7.3-2.39,2.73-4.61,5.63-6.66,8.7-1.96,2.99-3.5,5.97-4.61,8.96-.08,.51-.64,.94-1.66,1.28-1.02,.34-1.96,.51-2.82,.51-1.36,0-1.88-.43-1.54-1.28,1.96-4.44,3.97-9.34,6.02-14.72,2.13-5.38,4.52-10.88,7.17-16.51,1.96-4.27,4.14-8.66,6.53-13.18,2.47-4.52,5.21-8.83,8.19-12.93,2.99-4.18,6.27-7.85,9.86-11.01,3.16-2.73,6.61-4.95,10.37-6.66,3.84-1.79,7.98-2.69,12.42-2.69,1.96,0,3.67,.43,5.12,1.28,1.45,.77,2.26,2.18,2.43,4.22v1.15c0,1.19-.13,2.39-.38,3.58-.09,.34-.43,.51-1.02,.51-.26,0-.34-.04-.26-.13,.34-2.22-.26-3.8-1.79-4.74-1.45-.94-3.33-1.41-5.63-1.41-4.18,0-8.02,.77-11.52,2.3-3.5,1.54-6.74,3.58-9.73,6.14-4.61,4.01-8.62,9.13-12.03,15.36-3.41,6.23-6.36,12.59-8.83,19.07-1.19,3.16-2.39,6.31-3.58,9.47-1.11,3.16-2.18,6.1-3.2,8.83,3.84-5.12,7.51-9.51,11.01-13.18,3.58-3.67,6.7-6.27,9.34-7.81,2.13-1.19,4.05-1.79,5.76-1.79s2.43,.68,2.43,2.05c0,1.19-.6,2.73-1.79,4.61-.6,.94-1.54,2.52-2.82,4.74-1.19,2.22-2.47,4.65-3.84,7.3-1.28,2.56-2.39,4.95-3.33,7.17-.94,2.22-1.41,3.84-1.41,4.86,0,1.37,.6,2.05,1.79,2.05,.68,0,1.45-.21,2.3-.64,.94-.43,1.62-.81,2.05-1.15,2.3-1.71,4.57-3.8,6.78-6.27,2.22-2.47,4.1-4.65,5.63-6.53,.09-.09,.13,.04,.13,.38s-.09,.85-.26,1.54c-.08,.6-.34,1.11-.77,1.54-.94,1.28-1.92,2.52-2.94,3.71-.94,1.11-1.88,2.22-2.82,3.33-1.62,1.88-3.58,3.67-5.89,5.38-2.22,1.71-4.74,2.56-7.55,2.56Zm43.77-.38c-.85,0-1.58-.17-2.18-.51-.6-.34-.9-.98-.9-1.92,0-1.19,.3-2.56,.9-4.1,.6-1.54,1.28-3.03,2.05-4.48,.77-1.54,1.45-2.77,2.05-3.71-2.99,3.16-6.1,6.14-9.34,8.96-1.62,1.37-3.41,2.65-5.38,3.84-1.96,1.19-4.05,1.79-6.27,1.79-.85,0-1.45-.26-1.79-.77-.34-.6-.51-1.28-.51-2.05,0-.43,.04-.73,.13-.9,.43-3.33,1.49-6.78,3.2-10.37,1.71-3.58,3.8-6.95,6.27-10.11,2.47-3.16,4.99-5.72,7.55-7.68,2.9-2.22,6.1-3.33,9.6-3.33h14.72c.43,0,.64,.17,.64,.51,0,.68-.38,1.02-1.15,1.02-.85,0-1.71,.55-2.56,1.66-.85,1.02-1.49,1.88-1.92,2.56-.6,.94-1.54,2.52-2.82,4.74-1.28,2.22-2.6,4.65-3.97,7.3-1.28,2.56-2.39,4.95-3.33,7.17-.94,2.22-1.41,3.84-1.41,4.86,0,1.19,.6,1.79,1.79,1.79,1.28,0,2.73-.6,4.35-1.79,1.62-1.19,3.24-2.65,4.86-4.35,1.71-1.79,3.24-3.54,4.61-5.25,1.45-1.79,2.6-3.2,3.46-4.22,.51,.51,.47,1.24-.13,2.18-.51,.85-.98,1.54-1.41,2.05-1.71,2.22-3.67,4.52-5.89,6.91-2.22,2.3-4.65,4.27-7.3,5.89-2.56,1.54-5.21,2.3-7.94,2.3Zm-13.82-4.48c1.02,0,2.43-.73,4.22-2.18,1.88-1.54,3.88-3.41,6.02-5.63,2.13-2.3,4.14-4.69,6.02-7.17,1.88-2.56,3.41-4.86,4.61-6.91,1.28-2.13,1.92-3.75,1.92-4.86,0-.94-.3-1.58-.9-1.92-.51-.34-1.2-.51-2.05-.51-1.37,0-2.86,.51-4.48,1.54-1.54,.94-2.77,1.88-3.71,2.82-1.02,.94-2.26,2.43-3.71,4.48-1.37,1.96-2.73,4.14-4.1,6.53-1.37,2.39-2.52,4.69-3.46,6.91-.94,2.22-1.41,4.01-1.41,5.38,0,1.02,.34,1.54,1.02,1.54Zm48.89,4.48c-.85,0-1.58-.17-2.18-.51-.6-.34-.9-.98-.9-1.92,0-1.19,.3-2.6,.9-4.22,.68-1.62,1.41-3.24,2.18-4.86s1.41-2.94,1.92-3.97c1.02-1.96,2.01-3.93,2.94-5.89,.94-1.96,1.75-3.63,2.43-4.99,.68-1.28,1.02-2.13,1.02-2.56,0-.68-.51-.68-1.54,0-.94,.68-1.83,1.37-2.69,2.05-1.88,1.79-3.84,3.93-5.89,6.4-2.05,2.39-3.63,4.31-4.74,5.76-.26,.34-.47,.51-.64,.51s-.26-.21-.26-.64c0-.68,.21-1.32,.64-1.92,1.2-1.71,2.6-3.58,4.22-5.63,1.62-2.05,3.29-4.01,4.99-5.89,1.62-1.71,3.29-3.37,4.99-4.99,1.71-1.62,3.88-2.43,6.53-2.43,1.79,0,2.69,.68,2.69,2.05,0,1.19-.51,2.56-1.54,4.1-.6,.94-1.54,2.52-2.82,4.74-1.28,2.22-2.6,4.65-3.97,7.3-1.28,2.56-2.39,4.95-3.33,7.17-.94,2.22-1.41,3.84-1.41,4.86,0,1.19,.6,1.79,1.79,1.79,.94,0,2.09-.47,3.46-1.41,1.37-1.02,2.77-2.22,4.22-3.58,2.65-2.56,5.04-5.33,7.17-8.32,2.22-3.07,4.1-6.02,5.63-8.83,1.62-2.82,2.9-5.12,3.84-6.91,.17-.34,.34-.73,.51-1.15,.26-.51,.64-.81,1.15-.9,.51-.09,1.62-.13,3.33-.13s3.29-.34,4.74-1.02h.26c.26,0,.38,.13,.38,.38,0,.68-.55,1.19-1.66,1.54-1.02,.34-2.22,1.37-3.58,3.07-1.28,1.71-2.56,3.8-3.84,6.27-1.28,2.39-2.43,4.86-3.46,7.42-1.02,2.56-1.79,4.91-2.3,7.04s-.64,3.71-.38,4.74c.34,1.19,.94,1.79,1.79,1.79,1.11,0,2.65-.68,4.61-2.05,2.05-1.37,4.14-2.99,6.27-4.86,2.13-1.96,3.88-3.75,5.25-5.38,.6-.68,1.15-1.37,1.66-2.05,.51-.68,.85-1.11,1.02-1.28,.09,.09,.17,.26,.26,.51,.09,.17,.13,.34,.13,.51-.08,.6-.3,1.19-.64,1.79-.34,.51-.72,.98-1.15,1.41-1.62,2.13-3.58,4.39-5.89,6.78-2.22,2.3-4.65,4.27-7.3,5.89-2.56,1.62-5.2,2.43-7.94,2.43-.85,0-1.83-.21-2.94-.64-1.02-.43-1.54-1.37-1.54-2.82,0-1.11,.3-2.6,.9-4.48,.6-1.96,1.24-3.88,1.92-5.76,.77-1.96,1.41-3.41,1.92-4.35-1.11,1.62-2.47,3.46-4.1,5.5-1.54,1.96-3.11,3.71-4.74,5.25-2.13,2.05-4.44,3.8-6.91,5.25-2.39,1.37-4.86,2.05-7.42,2.05Zm58.44,1.66c-1.54,0-3.16-.21-4.86-.64-1.71-.43-3.24-1.11-4.61-2.05-1.28-1.02-2.13-2.39-2.56-4.1-.08-.26-.13-.64-.13-1.15,0-1.19,.26-2.52,.77-3.97,.6-1.45,1.32-2.47,2.18-3.07,.34-.17,.6-.17,.77,0,.26,.17,.3,.34,.13,.51-.08,.26-.21,.6-.38,1.02-.17,.34-.3,.73-.38,1.15-.26,2.22,.21,4.18,1.41,5.89,.51,.68,1.11,1.32,1.79,1.92,.77,.6,1.49,1.11,2.18,1.54,.6,.34,1.32,.6,2.18,.77,.85,.09,1.71,.13,2.56,.13,1.37,0,2.69-.17,3.97-.51s2.22-.9,2.82-1.66c1.11-1.37,1.66-2.9,1.66-4.61,0-1.28-.34-2.65-1.02-4.1-.68-1.45-1.75-2.99-3.2-4.61-.94-1.02-1.83-2.13-2.69-3.33-.85-1.19-1.41-2.47-1.66-3.84-.09-.26-.17-.51-.26-.77v-.77c-1.11,1.62-2.26,3.16-3.46,4.61-1.11,1.37-2.09,2.56-2.94,3.58-.34,.51-.64,.77-.9,.77-.17,0-.26-.17-.26-.51,0-.77,.34-1.58,1.02-2.43,.68-.77,1.45-1.71,2.3-2.82,.85-1.19,1.54-2.13,2.05-2.82,1.45-2.13,2.52-3.8,3.2-4.99,.77-1.28,1.58-2.43,2.43-3.46,.94-1.11,2.09-2.01,3.46-2.69,1.45-.68,2.94-1.02,4.48-1.02,1.79,0,3.41,.3,4.86,.9,1.54,.51,2.35,1.88,2.43,4.1,0,1.02-.21,2.09-.64,3.2-.34,1.02-.73,2.01-1.15,2.94-.26,.51-.64,.9-1.15,1.15-.43,.17-.64,.09-.64-.26s.04-.73,.13-1.15c.09-.43,.13-.81,.13-1.15,0-1.45-.26-2.73-.77-3.84-.43-1.19-1.07-2.05-1.92-2.56-.85-.6-1.75-.9-2.69-.9-1.36,0-2.69,.55-3.97,1.66-1.28,1.02-1.92,2.39-1.92,4.1v.64c0,.26,.04,.47,.13,.64,.34,1.37,1.37,2.9,3.07,4.61,1.71,1.71,3.03,3.2,3.97,4.48,1.62,2.22,2.43,4.48,2.43,6.78s-.68,4.44-2.05,6.4c-1.28,1.88-3.03,3.37-5.25,4.48-2.13,1.19-4.48,1.79-7.04,1.79Zm69.55-.77c-2.65,0-5.16-.73-7.55-2.18-2.39-1.54-4.18-3.84-5.38-6.91-.43-1.11-.73-2.26-.9-3.46-.17-1.28-.26-2.52-.26-3.71s.21-1.79,.64-1.79c.51,0,.77,.34,.77,1.02,0,4.01,.98,7.04,2.94,9.09,2.05,2.05,4.57,3.07,7.55,3.07s5.85-.85,8.58-2.56c2.82-1.71,5.42-3.88,7.81-6.53,3.92-4.27,7.25-8.58,9.98-12.93,2.73-4.44,5.21-8.96,7.42-13.57,2.3-4.69,4.61-9.56,6.91-14.59,1.45-3.07,3.24-5.76,5.38-8.06,2.22-2.3,4.86-3.88,7.94-4.74l.13-.13h-7.04c-2.99,0-6.14,.13-9.47,.38-3.33,.26-6.36,.81-9.09,1.66-2.65,.85-4.57,2.13-5.76,3.84-.77,1.11-1.15,2.39-1.15,3.84s.38,2.86,1.15,4.22,1.75,2.35,2.94,2.94c.17,.17,.26,.3,.26,.38,0,.17-.21,.38-.64,.64-.34,.17-.73,.21-1.15,.13-.68-.43-1.54-1.11-2.56-2.05-1.02-1.02-1.96-2.09-2.82-3.2-.77-1.11-1.28-2.05-1.54-2.82-.34-1.02-.51-2.05-.51-3.07,0-2.05,.72-3.71,2.18-4.99,1.54-1.28,3.5-2.26,5.89-2.94,2.39-.68,4.95-1.15,7.68-1.41,2.82-.34,5.5-.51,8.06-.51,2.65-.09,4.91-.13,6.78-.13h13.82c.17,0,.26,.04,.26,.13,0,.26-.3,.64-.9,1.15-.51,.43-.85,.64-1.02,.64-2.13,.43-3.71,1.58-4.74,3.46-1.02,1.79-1.49,4.69-1.41,8.7v2.82c.09,1.88,.17,4.31,.26,7.3,.09,2.99,.17,6.19,.26,9.6,.08,3.41,.17,6.7,.26,9.86,.09,3.16,.17,5.8,.26,7.94v.77l44.42-46.85c2.82-2.99,5.59-5.5,8.32-7.55,2.82-2.13,5.72-3.07,8.7-2.82,.09,0,.13,.04,.13,.13h.13c0,.26-.17,.55-.51,.9-.34,.34-.73,.55-1.15,.64-2.22-.09-4.22,.77-6.02,2.56-1.79,1.79-3.46,3.93-4.99,6.4-.77,1.28-1.92,3.33-3.46,6.14-1.54,2.73-3.29,5.97-5.25,9.73-1.88,3.75-3.8,7.72-5.76,11.9-1.96,4.18-3.8,8.28-5.5,12.29-1.62,4.01-2.94,7.68-3.97,11.01-1.02,3.24-1.54,5.89-1.54,7.94,0,2.39,.81,3.58,2.43,3.58,.68,0,1.41-.17,2.18-.51,1.11-.43,2.35-1.07,3.71-1.92,1.36-.85,2.6-1.83,3.71-2.94,2.22-2.13,4.18-4.31,5.89-6.53,1.71-2.3,2.73-3.63,3.07-3.97,.26-.34,.47-.51,.64-.51,.34,0,.51,.26,.51,.77s-.17,.98-.51,1.41c-.68,.85-1.84,2.35-3.46,4.48-1.62,2.05-3.54,4.14-5.76,6.27-2.13,2.13-4.44,3.75-6.91,4.86-.77,.34-1.58,.6-2.43,.77-.85,.26-1.71,.38-2.56,.38-1.88,0-3.58-.55-5.12-1.66-1.45-1.19-2.18-3.16-2.18-5.89s.6-5.63,1.79-8.96c1.28-3.41,2.69-6.7,4.22-9.86,1.62-3.24,2.94-5.97,3.97-8.19,1.11-2.3,2.52-5.25,4.22-8.83,1.71-3.58,3.67-7.21,5.89-10.88l-36.86,38.91c-.09,.68-.38,1.37-.9,2.05-.51,.6-1.32,1.11-2.43,1.54-.6,.26-1.41,.94-2.43,2.05-1.02,1.11-1.71,1.88-2.05,2.3,0,.09-.13,.13-.38,.13s-.51-.09-.77-.26c-.26-.17-.34-.3-.26-.38,2.22-2.82,3.37-6.7,3.46-11.65l.13-3.07c.17-3.58,.3-7.34,.38-11.26,.09-4.01,.13-7.72,.13-11.14,.09-3.5,.13-6.31,.13-8.45v-3.33c0-2.05,.3-3.84,.9-5.38,.6-1.54,1.32-2.86,2.18-3.97-1.45,1.11-2.86,2.43-4.22,3.97-1.37,1.54-2.52,3.24-3.46,5.12-1.28,2.65-2.73,6.06-4.35,10.24-1.62,4.18-3.5,8.62-5.63,13.31-2.05,4.69-4.35,9.3-6.91,13.82-2.48,4.44-5.25,8.28-8.32,11.52-2.13,2.3-4.86,4.27-8.19,5.89-3.24,1.62-6.32,2.43-9.22,2.43Zm110.6-.9c-.85,0-1.58-.17-2.18-.51-.6-.34-.9-.98-.9-1.92,0-1.19,.3-2.6,.9-4.22,.68-1.62,1.41-3.24,2.18-4.86s1.41-2.94,1.92-3.97c1.02-1.96,2.01-3.93,2.94-5.89,.94-1.96,1.75-3.63,2.43-4.99,.68-1.28,1.02-2.13,1.02-2.56,0-.68-.51-.68-1.54,0-.94,.68-1.83,1.37-2.69,2.05-1.88,1.79-3.84,3.93-5.89,6.4-2.05,2.39-3.63,4.31-4.74,5.76-.26,.34-.47,.51-.64,.51s-.26-.21-.26-.64c0-.68,.21-1.32,.64-1.92,1.2-1.71,2.6-3.58,4.22-5.63,1.62-2.05,3.29-4.01,4.99-5.89,1.62-1.71,3.29-3.37,4.99-4.99,1.71-1.62,3.88-2.43,6.53-2.43,1.79,0,2.69,.68,2.69,2.05,0,1.19-.51,2.56-1.54,4.1-.6,.94-1.54,2.52-2.82,4.74-1.28,2.22-2.6,4.65-3.97,7.3-1.28,2.56-2.39,4.95-3.33,7.17-.94,2.22-1.41,3.84-1.41,4.86,0,1.19,.6,1.79,1.79,1.79,.94,0,2.09-.47,3.46-1.41,1.37-1.02,2.77-2.22,4.22-3.58,2.65-2.56,5.03-5.33,7.17-8.32,2.22-3.07,4.1-6.02,5.63-8.83,1.62-2.82,2.9-5.12,3.84-6.91,.17-.34,.34-.73,.51-1.15,.26-.51,.64-.81,1.15-.9,.51-.09,1.62-.13,3.33-.13s3.29-.34,4.74-1.02h.26c.26,0,.38,.13,.38,.38,0,.68-.55,1.19-1.66,1.54-1.02,.34-2.22,1.37-3.58,3.07-1.28,1.71-2.56,3.8-3.84,6.27-1.28,2.39-2.43,4.86-3.46,7.42s-1.79,4.91-2.3,7.04-.64,3.71-.38,4.74c.34,1.19,.94,1.79,1.79,1.79,1.11,0,2.65-.68,4.61-2.05,2.05-1.37,4.14-2.99,6.27-4.86,2.13-1.96,3.88-3.75,5.25-5.38,.6-.68,1.15-1.37,1.66-2.05,.51-.68,.85-1.11,1.02-1.28,.09,.09,.17,.26,.26,.51,.09,.17,.13,.34,.13,.51-.08,.6-.3,1.19-.64,1.79-.34,.51-.73,.98-1.15,1.41-1.62,2.13-3.58,4.39-5.89,6.78-2.22,2.3-4.65,4.27-7.3,5.89-2.56,1.62-5.21,2.43-7.94,2.43-.85,0-1.83-.21-2.94-.64-1.02-.43-1.54-1.37-1.54-2.82,0-1.11,.3-2.6,.9-4.48,.6-1.96,1.24-3.88,1.92-5.76,.77-1.96,1.41-3.41,1.92-4.35-1.11,1.62-2.47,3.46-4.1,5.5-1.54,1.96-3.11,3.71-4.74,5.25-2.13,2.05-4.44,3.8-6.91,5.25-2.39,1.37-4.86,2.05-7.42,2.05Zm58.44,1.66c-1.54,0-3.16-.21-4.86-.64-1.71-.43-3.24-1.11-4.61-2.05-1.28-1.02-2.13-2.39-2.56-4.1-.09-.26-.13-.64-.13-1.15,0-1.19,.26-2.52,.77-3.97,.6-1.45,1.32-2.47,2.18-3.07,.34-.17,.6-.17,.77,0,.26,.17,.3,.34,.13,.51-.09,.26-.21,.6-.38,1.02-.17,.34-.3,.73-.38,1.15-.26,2.22,.21,4.18,1.41,5.89,.51,.68,1.11,1.32,1.79,1.92,.77,.6,1.49,1.11,2.18,1.54,.6,.34,1.32,.6,2.18,.77,.85,.09,1.71,.13,2.56,.13,1.37,0,2.69-.17,3.97-.51,1.28-.34,2.22-.9,2.82-1.66,1.11-1.37,1.66-2.9,1.66-4.61,0-1.28-.34-2.65-1.02-4.1-.68-1.45-1.75-2.99-3.2-4.61-.94-1.02-1.83-2.13-2.69-3.33-.85-1.19-1.41-2.47-1.66-3.84-.09-.26-.17-.51-.26-.77v-.77c-1.11,1.62-2.26,3.16-3.46,4.61-1.11,1.37-2.09,2.56-2.94,3.58-.34,.51-.64,.77-.9,.77-.17,0-.26-.17-.26-.51,0-.77,.34-1.58,1.02-2.43,.68-.77,1.45-1.71,2.3-2.82,.85-1.19,1.54-2.13,2.05-2.82,1.45-2.13,2.52-3.8,3.2-4.99,.77-1.28,1.58-2.43,2.43-3.46,.94-1.11,2.09-2.01,3.46-2.69,1.45-.68,2.94-1.02,4.48-1.02,1.79,0,3.41,.3,4.86,.9,1.54,.51,2.35,1.88,2.43,4.1,0,1.02-.21,2.09-.64,3.2-.34,1.02-.73,2.01-1.15,2.94-.26,.51-.64,.9-1.15,1.15-.43,.17-.64,.09-.64-.26s.04-.73,.13-1.15c.09-.43,.13-.81,.13-1.15,0-1.45-.26-2.73-.77-3.84-.43-1.19-1.07-2.05-1.92-2.56-.85-.6-1.75-.9-2.69-.9-1.37,0-2.69,.55-3.97,1.66-1.28,1.02-1.92,2.39-1.92,4.1v.64c0,.26,.04,.47,.13,.64,.34,1.37,1.36,2.9,3.07,4.61,1.71,1.71,3.03,3.2,3.97,4.48,1.62,2.22,2.43,4.48,2.43,6.78s-.68,4.44-2.05,6.4c-1.28,1.88-3.03,3.37-5.25,4.48-2.13,1.19-4.48,1.79-7.04,1.79Zm35.13-1.02c-3.16,0-5.38-.6-6.66-1.79-1.28-1.19-1.92-2.73-1.92-4.61,0-2.47,.81-5.21,2.43-8.19,1.62-3.07,3.16-5.63,4.61-7.68,1.45-1.96,3.07-3.8,4.86-5.5,1.88-1.79,3.88-3.33,6.02-4.61,1.36-.85,3.2-1.75,5.5-2.69,2.39-1.02,4.39-1.54,6.02-1.54,1.96,0,3.33,.47,4.1,1.41,.77,.85,1.15,1.92,1.15,3.2,0,1.02-.17,2.09-.51,3.2-.34,1.02-.73,2.01-1.15,2.94-.26,.51-.64,.9-1.15,1.15-.51,.17-.77,.09-.77-.26,0-.43,.04-.81,.13-1.15,.09-.34,.13-.73,.13-1.15,0-1.62-.38-3.2-1.15-4.74-.68-1.62-1.75-2.43-3.2-2.43-1.54,0-3.2,.55-4.99,1.66-1.79,1.02-3.03,1.92-3.71,2.69-2.22,2.3-4.4,5.16-6.53,8.58-2.05,3.41-3.54,6.66-4.48,9.73-.6,1.79-.9,3.33-.9,4.61,0,1.45,.38,2.47,1.15,3.07s1.71,.9,2.82,.9c.85,0,1.75-.13,2.69-.38,1.02-.26,2.09-.55,3.2-.9,2.56-.85,5.12-2.18,7.68-3.97,2.64-1.88,5.03-3.84,7.17-5.89,2.13-2.13,3.75-3.97,4.86-5.5,.17,.17,.26,.43,.26,.77,0,.43-.17,.94-.51,1.54-.34,.51-.6,.94-.77,1.28-1.79,2.39-4.14,4.86-7.04,7.42-2.9,2.47-6.06,4.57-9.47,6.27-3.33,1.71-6.61,2.56-9.86,2.56Zm51.75-.26c-1.28,0-2.43-.26-3.46-.77-.94-.51-1.41-1.45-1.41-2.82,0-.77,.17-1.62,.51-2.56,.77-1.96,1.79-4.35,3.07-7.17,1.36-2.82,2.73-5.55,4.1-8.19,1.36-2.73,2.43-4.95,3.2-6.66,.51-1.02,.77-1.75,.77-2.18,0-.77-.43-.94-1.28-.51-.85,.43-1.79,1.02-2.82,1.79-1.02,.77-1.79,1.37-2.3,1.79-2.22,2.05-4.57,4.48-7.04,7.3-2.39,2.73-4.61,5.63-6.66,8.7-1.96,2.99-3.5,5.97-4.61,8.96-.09,.51-.64,.94-1.66,1.28-1.02,.34-1.96,.51-2.82,.51-1.37,0-1.88-.43-1.54-1.28,1.96-4.44,3.97-9.34,6.02-14.72,2.13-5.38,4.52-10.88,7.17-16.51,1.96-4.27,4.14-8.66,6.53-13.18,2.47-4.52,5.2-8.83,8.19-12.93,2.99-4.18,6.27-7.85,9.86-11.01,3.16-2.73,6.61-4.95,10.37-6.66,3.84-1.79,7.98-2.69,12.42-2.69,1.96,0,3.67,.43,5.12,1.28,1.45,.77,2.26,2.18,2.43,4.22v1.15c0,1.19-.13,2.39-.38,3.58-.09,.34-.43,.51-1.02,.51-.26,0-.34-.04-.26-.13,.34-2.22-.26-3.8-1.79-4.74-1.45-.94-3.33-1.41-5.63-1.41-4.18,0-8.02,.77-11.52,2.3-3.5,1.54-6.74,3.58-9.73,6.14-4.61,4.01-8.62,9.13-12.03,15.36-3.41,6.23-6.36,12.59-8.83,19.07-1.19,3.16-2.39,6.31-3.58,9.47-1.11,3.16-2.18,6.1-3.2,8.83,3.84-5.12,7.51-9.51,11.01-13.18,3.58-3.67,6.7-6.27,9.34-7.81,2.13-1.19,4.05-1.79,5.76-1.79s2.43,.68,2.43,2.05c0,1.19-.6,2.73-1.79,4.61-.6,.94-1.54,2.52-2.82,4.74-1.2,2.22-2.48,4.65-3.84,7.3-1.28,2.56-2.39,4.95-3.33,7.17-.94,2.22-1.41,3.84-1.41,4.86,0,1.37,.6,2.05,1.79,2.05,.68,0,1.45-.21,2.3-.64,.94-.43,1.62-.81,2.05-1.15,2.3-1.71,4.57-3.8,6.78-6.27,2.22-2.47,4.1-4.65,5.63-6.53,.08-.09,.13,.04,.13,.38s-.09,.85-.26,1.54c-.09,.6-.34,1.11-.77,1.54-.94,1.28-1.92,2.52-2.94,3.71-.94,1.11-1.88,2.22-2.82,3.33-1.62,1.88-3.58,3.67-5.89,5.38-2.22,1.71-4.74,2.56-7.55,2.56Zm33.66,.26c-3.5,0-5.93-.68-7.3-2.05-1.36-1.37-2.05-3.03-2.05-4.99,0-2.47,.64-5.12,1.92-7.94,1.37-2.82,2.65-5.21,3.84-7.17,1.37-2.05,3.2-4.18,5.5-6.4s4.82-4.1,7.55-5.63c2.73-1.54,5.38-2.3,7.94-2.3,2.22,0,3.76,.55,4.61,1.66,.85,1.02,1.28,2.26,1.28,3.71,0,2.65-.81,4.82-2.43,6.53-1.54,1.71-3.46,3.11-5.76,4.22-2.3,1.02-4.52,1.88-6.66,2.56-1.28,.34-2.77,.68-4.48,1.02-1.71,.34-3.33,.51-4.86,.51-.6,1.54-1.07,3.03-1.41,4.48-.34,1.45-.51,2.77-.51,3.97,0,1.45,.34,2.65,1.02,3.58,.77,.94,2.01,1.41,3.71,1.41,.68,0,1.49-.09,2.43-.26,.94-.17,1.96-.43,3.07-.77,2.56-.85,5.08-2.22,7.55-4.1,2.48-1.88,4.74-3.88,6.78-6.02,2.13-2.22,3.75-4.05,4.86-5.5,.26,.26,.38,.55,.38,.9,0,.43-.3,1.11-.9,2.05-1.71,2.39-3.93,4.86-6.66,7.42-2.73,2.56-5.76,4.74-9.09,6.53-3.33,1.71-6.78,2.56-10.37,2.56Zm.13-18.82c1.11,.09,2.35,.09,3.71,0,1.45-.17,2.86-.47,4.22-.9,3.5-1.02,6.02-2.65,7.55-4.86,1.62-2.3,2.43-4.35,2.43-6.14,0-1.02-.21-1.88-.64-2.56-.43-.68-1.11-1.02-2.05-1.02-2.47,0-4.69,.94-6.66,2.82-1.96,1.79-3.67,3.88-5.12,6.27-1.45,2.39-2.6,4.52-3.46,6.4Zm40.58,18.05c-2.56,0-4.31-.6-5.25-1.79-.94-1.28-1.41-2.82-1.41-4.61,0-2.39,.51-4.95,1.54-7.68,1.11-2.73,2.01-4.86,2.69-6.4-1.11,1.19-2.18,2.35-3.2,3.46-1.02,1.11-1.75,1.92-2.18,2.43-.26,.34-.47,.51-.64,.51s-.26-.21-.26-.64c0-.68,.21-1.32,.64-1.92,1.19-1.54,2.56-3.16,4.1-4.86,1.54-1.71,3.03-3.5,4.48-5.38,1.71-3.16,3.58-6.83,5.63-11.01,2.13-4.27,4.31-8.62,6.53-13.06,2.3-4.52,4.52-8.66,6.66-12.42,2.22-3.84,4.18-6.91,5.89-9.22,1.45-.6,2.82-1.37,4.1-2.3,1.37-.94,2.69-1.79,3.97-2.56,1.37-.85,2.77-1.28,4.22-1.28,.94,0,1.62,.26,2.05,.77,.51,.51,.85,1.11,1.02,1.79,.09,.26,.13,.73,.13,1.41,0,1.96-.68,4.35-2.05,7.17-1.28,2.82-2.82,5.59-4.61,8.32-1.71,2.65-3.2,4.82-4.48,6.53-3.41,4.78-6.91,9.13-10.5,13.06-3.58,3.84-6.83,7.08-9.73,9.73-2.82,2.56-4.86,4.44-6.14,5.63-.6,1.11-1.32,2.6-2.18,4.48-.77,1.79-1.45,3.71-2.05,5.76-.6,1.96-.9,3.8-.9,5.5,0,1.45,.34,2.69,1.02,3.71,.68,.94,1.84,1.41,3.46,1.41h.77c.26,0,.55-.04,.9-.13,1.45-.26,3.03-1.07,4.74-2.43,1.71-1.37,3.41-2.94,5.12-4.74,1.71-1.79,3.24-3.5,4.61-5.12,.6-.68,1.15-1.32,1.66-1.92,.51-.68,.85-1.15,1.02-1.41,.6,.6,.55,1.37-.13,2.3-.6,.85-1.11,1.58-1.54,2.18-.6,.77-1.45,1.83-2.56,3.2-1.11,1.28-2.39,2.69-3.84,4.22-1.62,1.62-3.63,3.24-6.02,4.86-2.39,1.62-4.82,2.43-7.3,2.43Zm5.38-29.44c2.65-2.22,5.97-5.38,9.98-9.47,4.1-4.18,8.11-9.22,12.03-15.1,.43-.68,1.11-1.83,2.05-3.46,1.02-1.62,2.05-3.46,3.07-5.5,1.11-2.13,2.05-4.18,2.82-6.14,.77-2.05,1.15-3.8,1.15-5.25,0-1.37-.38-2.05-1.15-2.05-.94,0-2.18,.81-3.71,2.43-1.79,1.88-3.84,4.65-6.14,8.32-2.22,3.58-4.57,7.59-7.04,12.03-2.47,4.44-4.86,8.79-7.17,13.06-2.22,4.27-4.18,7.98-5.89,11.14Zm44.14,29.82c-2.13,0-3.75-.73-4.86-2.18-.68-1.02-1.36-2.56-2.05-4.61-.68-2.05-1.28-4.18-1.79-6.4-.51-2.22-.94-4.01-1.28-5.38-2.39,3.07-4.52,6.14-6.4,9.22-1.79,3.07-2.99,5.46-3.58,7.17-.17,.51-.77,.94-1.79,1.28-.94,.34-1.88,.51-2.82,.51-1.36,0-1.88-.43-1.54-1.28,2.65-5.89,5.16-11.56,7.55-17.02,2.39-5.46,4.91-10.97,7.55-16.51,2.73-5.55,5.8-11.31,9.22-17.28,2.39-4.35,5.25-8.53,8.58-12.54,3.41-4.1,7.04-7.42,10.88-9.98,3.84-2.65,7.72-3.97,11.65-3.97,1.28,0,2.48,.34,3.58,1.02,1.11,.68,1.66,1.75,1.66,3.2v3.71c0,.34-.26,.51-.77,.51-.26,0-.38-.09-.38-.26,0-1.37-.6-2.26-1.79-2.69-1.19-.51-2.35-.77-3.46-.77-2.99,0-6.02,.6-9.09,1.79-3.41,1.37-6.27,3.41-8.58,6.14-2.3,2.73-4.44,5.63-6.4,8.7-2.56,3.93-5.08,8.53-7.55,13.82-2.47,5.21-4.78,10.45-6.91,15.74-2.05,5.29-3.88,10.07-5.5,14.34,.94-1.19,1.88-2.39,2.82-3.58,.94-1.19,1.84-2.3,2.69-3.33,0-.17-.04-.34-.13-.51v-.51c0-.6,.13-1.11,.38-1.54,.26-.43,.6-.94,1.02-1.54,.6-.85,1.15-1.49,1.66-1.92,.51-.51,1.07-1.15,1.66-1.92l.38,2.18c3.76-3.84,7.04-6.61,9.86-8.32,1.96-1.19,3.88-1.79,5.76-1.79s2.82,.73,2.82,2.18c0,1.19-.6,2.69-1.79,4.48-.43,.6-.68,1.02-.77,1.28-.09,.26-.26,.51-.51,.77-.08,.09-.26,.09-.51,0-.26-.09-.38-.21-.38-.38,0-1.02-.34-1.66-1.02-1.92-.68-.34-1.45-.51-2.3-.51-1.62,0-3.37,.6-5.25,1.79-1.79,1.11-3.63,2.65-5.5,4.61,.43,2.13,.9,4.48,1.41,7.04,.6,2.47,1.24,4.78,1.92,6.91,.68,2.13,1.32,3.71,1.92,4.74,.43,.68,1.02,1.15,1.79,1.41,.77,.17,1.41,.26,1.92,.26,1.2,0,2.56-.6,4.1-1.79,1.62-1.28,3.24-2.77,4.86-4.48,1.71-1.79,3.24-3.54,4.61-5.25,1.45-1.71,2.56-3.07,3.33-4.1,.34,.43,.43,.85,.26,1.28-.09,.51-.34,1.07-.77,1.66-.34,.51-.68,.98-1.02,1.41-1.71,2.13-3.54,4.31-5.5,6.53-1.96,2.13-4.05,4.05-6.27,5.76-.94,.77-2.09,1.45-3.46,2.05-1.36,.51-2.73,.77-4.1,.77Zm27.04,1.15c-.34,0-.34-.34,0-1.02,.43-.77,.81-1.62,1.15-2.56,.43-.94,.85-1.96,1.28-3.07,.85-2.05,1.79-4.35,2.82-6.91,1.02-2.56,2.01-5.03,2.94-7.42,.94-2.47,1.75-4.57,2.43-6.27,.77-1.79,1.28-2.94,1.54-3.46-1.19,1.28-2.65,2.9-4.35,4.86-1.62,1.88-3.16,3.71-4.61,5.5-1.45,1.79-2.56,3.2-3.33,4.22-.26,.34-.47,.51-.64,.51s-.26-.21-.26-.64c0-.68,.21-1.32,.64-1.92,1.62-2.05,3.41-4.35,5.38-6.91,2.05-2.56,3.88-4.91,5.5-7.04,1.62-2.22,2.65-3.67,3.07-4.35,.94-.17,2.3-.43,4.1-.77,1.88-.34,3.16-.81,3.84-1.41,.26-.26,.51-.38,.77-.38,.17,0,.26,.17,.26,.51,.09,.26,0,.55-.26,.9-.51,.51-1.28,1.62-2.3,3.33-.94,1.71-2.01,3.67-3.2,5.89-1.19,2.22-2.35,4.35-3.46,6.4,.85-1.28,1.96-2.77,3.33-4.48,1.45-1.79,3.03-3.5,4.74-5.12,1.71-1.71,3.41-3.11,5.12-4.22,1.79-1.11,3.46-1.66,4.99-1.66,1.11,0,2.05,.26,2.82,.77,.77,.43,1.37,1.24,1.79,2.43,.26,.6,.38,1.28,.38,2.05,0,1.45-.38,2.86-1.15,4.22-.68,1.28-1.19,2.26-1.54,2.94-.08,.26-.38,.51-.9,.77-.51,.17-.72,.09-.64-.26,.09-.43,.13-.85,.13-1.28,.09-.43,.13-.9,.13-1.41,0-1.45-.3-2.77-.9-3.97-.51-1.19-1.49-1.79-2.94-1.79-1.36,0-3.03,.85-4.99,2.56-1.96,1.71-3.92,3.67-5.89,5.89-2.47,2.9-4.44,5.67-5.89,8.32-1.45,2.56-2.64,5.08-3.58,7.55-.51,1.37-1.02,2.73-1.54,4.1-.51,1.28-.9,2.3-1.15,3.07-1.11,.09-2.22,.34-3.33,.77-1.11,.51-1.88,.77-2.3,.77Zm59.2-1.41c-.85,0-1.58-.17-2.18-.51-.6-.34-.9-.98-.9-1.92,0-1.19,.3-2.56,.9-4.1,.6-1.54,1.28-3.03,2.05-4.48,.77-1.54,1.45-2.77,2.05-3.71-2.99,3.16-6.1,6.14-9.34,8.96-1.62,1.37-3.41,2.65-5.38,3.84-1.96,1.19-4.05,1.79-6.27,1.79-.85,0-1.45-.26-1.79-.77-.34-.6-.51-1.28-.51-2.05,0-.43,.04-.73,.13-.9,.43-3.33,1.49-6.78,3.2-10.37,1.71-3.58,3.8-6.95,6.27-10.11,2.47-3.16,4.99-5.72,7.55-7.68,2.9-2.22,6.1-3.33,9.6-3.33h14.72c.43,0,.64,.17,.64,.51,0,.68-.38,1.02-1.15,1.02-.85,0-1.71,.55-2.56,1.66-.85,1.02-1.49,1.88-1.92,2.56-.6,.94-1.54,2.52-2.82,4.74-1.28,2.22-2.6,4.65-3.97,7.3-1.28,2.56-2.39,4.95-3.33,7.17-.94,2.22-1.41,3.84-1.41,4.86,0,1.19,.6,1.79,1.79,1.79,1.28,0,2.73-.6,4.35-1.79,1.62-1.19,3.24-2.65,4.86-4.35,1.71-1.79,3.24-3.54,4.61-5.25,1.45-1.79,2.61-3.2,3.46-4.22,.51,.51,.47,1.24-.13,2.18-.51,.85-.98,1.54-1.41,2.05-1.71,2.22-3.67,4.52-5.89,6.91-2.22,2.3-4.65,4.27-7.3,5.89-2.56,1.54-5.21,2.3-7.94,2.3Zm-13.82-4.48c1.02,0,2.43-.73,4.22-2.18,1.88-1.54,3.88-3.41,6.02-5.63,2.13-2.3,4.14-4.69,6.02-7.17,1.88-2.56,3.41-4.86,4.61-6.91,1.28-2.13,1.92-3.75,1.92-4.86,0-.94-.3-1.58-.9-1.92-.51-.34-1.2-.51-2.05-.51-1.37,0-2.86,.51-4.48,1.54-1.54,.94-2.77,1.88-3.71,2.82-1.02,.94-2.26,2.43-3.71,4.48-1.37,1.96-2.73,4.14-4.1,6.53-1.37,2.39-2.52,4.69-3.46,6.91-.94,2.22-1.41,4.01-1.41,5.38,0,1.02,.34,1.54,1.02,1.54Zm47.1,5.25c-1.11,0-2.44-.21-3.97-.64-1.54-.34-2.31-1.28-2.31-2.82,0-.6,.13-1.28,.39-2.05,.25-.77,.51-1.45,.77-2.05,.85-2.22,1.74-4.48,2.68-6.78s1.92-4.65,2.95-7.04c-1.11,1.28-2.18,2.47-3.2,3.58-.94,1.02-1.62,1.79-2.05,2.3-.26,.34-.47,.51-.64,.51s-.26-.21-.26-.64c0-.68,.22-1.32,.64-1.92,1.2-1.54,2.56-3.16,4.1-4.86,1.54-1.71,3.03-3.5,4.48-5.38,3.58-7.51,7.59-14.76,12.03-21.76,4.44-7.08,9.43-13.35,14.98-18.82,1.7-1.62,3.62-3.29,5.76-4.99,2.13-1.71,4.39-3.16,6.78-4.35,2.48-1.19,4.91-1.79,7.3-1.79,1.28,0,2.43,.34,3.45,1.02,1.11,.68,1.71,1.75,1.8,3.2v3.71c0,.34-.26,.51-.77,.51-.26,0-.39-.09-.39-.26,0-1.37-.59-2.26-1.79-2.69-1.19-.51-2.39-.77-3.58-.77-4.7,0-8.92,1.24-12.67,3.71-3.76,2.39-7.09,5.55-9.99,9.47-2.9,3.84-5.5,8.11-7.81,12.8-2.3,4.61-4.39,9.17-6.27,13.7-1.79,4.44-3.5,8.41-5.12,11.9v.26c0,.17,.04,.26,.13,.26,.08,0,.77-.64,2.05-1.92,1.36-1.37,3.03-2.94,4.99-4.74,2.05-1.79,4.18-3.33,6.4-4.61,2.22-1.37,4.27-2.05,6.14-2.05,.94,0,1.54,.34,1.8,1.02,.25,.6,.38,1.28,.38,2.05v1.15c-.43,3.16-1.54,6.57-3.33,10.24-1.71,3.67-3.92,7.17-6.65,10.5-2.65,3.24-5.64,5.89-8.96,7.94-3.25,2.05-6.66,3.07-10.24,3.07Zm2.04-2.18c1.37,0,2.82-.51,4.36-1.54,1.62-1.11,2.85-2.09,3.71-2.94,1.02-.94,2.26-2.39,3.71-4.35,1.45-2.05,2.86-4.27,4.22-6.66,1.37-2.39,2.52-4.69,3.46-6.91,.94-2.22,1.41-4.01,1.41-5.38,0-.43-.09-.81-.26-1.15-.17-.34-.47-.51-.89-.51-.77,0-1.8,.47-3.08,1.41-1.19,.94-2.51,2.09-3.96,3.46-1.37,1.28-2.65,2.56-3.84,3.84-1.11,1.19-1.92,2.09-2.44,2.69-.94,1.02-2.13,2.52-3.58,4.48-1.45,1.96-2.77,3.97-3.97,6.02-1.11,1.96-1.66,3.63-1.66,4.99,0,1.71,.94,2.56,2.81,2.56Zm40.01,2.18c-1.11,0-2.43-.21-3.97-.64-1.53-.34-2.3-1.28-2.3-2.82,0-.6,.13-1.28,.38-2.05,.26-.77,.51-1.45,.77-2.05,.85-2.22,1.75-4.48,2.69-6.78s1.92-4.65,2.94-7.04c-1.11,1.28-2.17,2.47-3.2,3.58-.94,1.02-1.62,1.79-2.05,2.3-.25,.34-.46,.51-.64,.51-.17,0-.25-.21-.25-.64,0-.68,.21-1.32,.64-1.92,1.19-1.54,2.56-3.16,4.09-4.86,1.54-1.71,3.03-3.5,4.48-5.38,3.59-7.51,7.6-14.76,12.04-21.76,4.43-7.08,9.43-13.35,14.97-18.82,1.71-1.62,3.63-3.29,5.76-4.99,2.14-1.71,4.4-3.16,6.79-4.35,2.47-1.19,4.9-1.79,7.29-1.79,1.28,0,2.43,.34,3.46,1.02,1.11,.68,1.71,1.75,1.79,3.2v3.71c0,.34-.26,.51-.77,.51-.25,0-.38-.09-.38-.26,0-1.37-.6-2.26-1.79-2.69-1.2-.51-2.39-.77-3.59-.77-4.69,0-8.91,1.24-12.67,3.71-3.75,2.39-7.08,5.55-9.98,9.47-2.9,3.84-5.51,8.11-7.81,12.8-2.31,4.61-4.4,9.17-6.27,13.7-1.8,4.44-3.5,8.41-5.12,11.9v.26c0,.17,.04,.26,.12,.26,.09,0,.77-.64,2.05-1.92,1.37-1.37,3.03-2.94,4.99-4.74,2.05-1.79,4.19-3.33,6.4-4.61,2.22-1.37,4.27-2.05,6.15-2.05,.94,0,1.53,.34,1.79,1.02,.26,.6,.38,1.28,.38,2.05v1.15c-.42,3.16-1.53,6.57-3.32,10.24-1.71,3.67-3.93,7.17-6.66,10.5-2.64,3.24-5.63,5.89-8.96,7.94-3.24,2.05-6.66,3.07-10.24,3.07Zm2.05-2.18c1.36,0,2.81-.51,4.35-1.54,1.62-1.11,2.86-2.09,3.71-2.94,1.03-.94,2.26-2.39,3.71-4.35,1.46-2.05,2.86-4.27,4.23-6.66,1.36-2.39,2.52-4.69,3.45-6.91,.94-2.22,1.41-4.01,1.41-5.38,0-.43-.08-.81-.25-1.15-.17-.34-.47-.51-.9-.51-.77,0-1.79,.47-3.07,1.41-1.2,.94-2.52,2.09-3.97,3.46-1.36,1.28-2.64,2.56-3.84,3.84-1.11,1.19-1.92,2.09-2.43,2.69-.94,1.02-2.13,2.52-3.59,4.48-1.45,1.96-2.77,3.97-3.96,6.02-1.11,1.96-1.67,3.63-1.67,4.99,0,1.71,.94,2.56,2.82,2.56Zm41.93,2.05c-3.5,0-5.94-.68-7.3-2.05-1.37-1.37-2.05-3.03-2.05-4.99,0-2.47,.64-5.12,1.92-7.94,1.37-2.82,2.65-5.21,3.84-7.17,1.37-2.05,3.2-4.18,5.51-6.4,2.3-2.22,4.82-4.1,7.55-5.63s5.37-2.3,7.93-2.3c2.22,0,3.76,.55,4.61,1.66,.85,1.02,1.28,2.26,1.28,3.71,0,2.65-.81,4.82-2.43,6.53-1.54,1.71-3.46,3.11-5.76,4.22-2.3,1.02-4.52,1.88-6.66,2.56-1.28,.34-2.77,.68-4.48,1.02-1.7,.34-3.32,.51-4.86,.51-.6,1.54-1.07,3.03-1.41,4.48s-.51,2.77-.51,3.97c0,1.45,.34,2.65,1.02,3.58,.77,.94,2.01,1.41,3.72,1.41,.68,0,1.49-.09,2.43-.26,.94-.17,1.96-.43,3.07-.77,2.56-.85,5.08-2.22,7.55-4.1,2.48-1.88,4.74-3.88,6.79-6.02,2.13-2.22,3.75-4.05,4.86-5.5,.26,.26,.38,.55,.38,.9,0,.43-.3,1.11-.89,2.05-1.71,2.39-3.93,4.86-6.66,7.42-2.73,2.56-5.76,4.74-9.09,6.53-3.32,1.71-6.78,2.56-10.36,2.56Zm.12-18.82c1.11,.09,2.35,.09,3.72,0,1.45-.17,2.85-.47,4.22-.9,3.5-1.02,6.02-2.65,7.55-4.86,1.62-2.3,2.43-4.35,2.43-6.14,0-1.02-.21-1.88-.64-2.56-.42-.68-1.11-1.02-2.04-1.02-2.48,0-4.7,.94-6.66,2.82-1.96,1.79-3.67,3.88-5.12,6.27-1.45,2.39-2.6,4.52-3.46,6.4Z" style="fill: #b9e3ae;"/>
</svg>